<?xml version="1.0" encoding="UTF-8"?>
<svg width="204px" height="38px" viewBox="0 0 204 38" version="1.1" xmlns="http://www.w3.org/2000/svg" xmlns:xlink="http://www.w3.org/1999/xlink">
    <title>Logo / Desktop / Transparent</title>
    <g id="Page-1" stroke="none" stroke-width="1" fill="none" fill-rule="evenodd">
        <g id="William-original" transform="translate(-1112.000000, -875.000000)" fill="#FFFFFF">
            <g id="Group" transform="translate(1112.000000, 875.000000)">
                <rect id="Base" fill-opacity="0" x="0" y="0" width="204" height="38"></rect>
                <path d="M33.0784652,1.17766279 C34.2240064,1.64972767 35.1351587,2.51283955 35.6655974,3.62181782 L35.7733822,3.86316637 L42.193,19.288 L48.6134747,3.86309519 C49.3285936,2.14668132 50.9190426,0.990575631 52.7435452,0.822869513 L52.9727806,0.80708513 L53.2041758,0.80178238 C55.141326,0.80178238 56.8832364,1.91354888 57.7012289,3.65162235 L57.7949066,3.86316637 L64.213,19.2879949 L70.6349383,3.86324116 C71.0785829,2.79603878 71.8629524,1.93403663 72.8691,1.3952225 L73.0880543,1.28475208 L73.3298865,1.17766279 C74.5582938,0.672213168 75.9100189,0.674155294 77.1345402,1.18323286 C78.361608,1.69259843 79.3163703,2.64909918 79.8219959,3.8761606 C80.2941697,5.02031209 80.3239531,6.2749288 79.9115701,7.43212671 L79.8164346,7.67853083 L68.8057315,34.1384652 C68.033197,35.9989845 66.2316781,37.2 64.214938,37.2 C62.2777879,37.2 60.5358774,36.0882335 59.7178849,34.35016 L59.6242073,34.138616 L53.204,18.711 L46.7841148,34.1386872 C46.0689959,35.8551011 44.4785469,37.0112067 42.6540443,37.1789129 L42.4248088,37.1946972 L42.1934137,37.2 C40.2847104,37.2 38.5317489,36.1271016 37.7599075,34.5031683 L37.6720487,34.3056847 L34.3707177,26.3711464 C34.1929754,25.9458075 34.3957014,25.4552752 34.8215417,25.2775802 C35.2149326,25.1134257 35.663176,25.2726759 35.8693617,25.6339336 L35.9156934,25.7283862 L39.2171011,33.6631084 C39.6727119,34.7564495 40.8992397,35.5272998 42.1951925,35.5272998 C43.4655397,35.5272998 44.6093859,34.8073163 45.1605802,33.6778159 L45.2426179,33.4961158 L52.4341504,16.2137054 C52.562866,15.9026724 52.8687336,15.6991289 53.2059546,15.6991289 C53.5057067,15.6991289 53.7806856,15.8599534 53.9283875,16.1138876 L53.9776094,16.2133452 L61.1693321,33.4962137 C61.6823964,34.7310351 62.8774201,35.5272998 64.2167168,35.5272998 C65.4881336,35.5272998 66.630791,34.8078599 67.1820792,33.6778962 L67.2641428,33.4961144 L78.2749488,7.03593282 C78.6140053,6.22244931 78.6153229,5.32668895 78.2783155,4.51242374 C77.9406021,3.69645239 77.3082865,3.06239937 76.4954019,2.72575602 C75.6812403,2.38690672 74.784714,2.3855899 73.9697698,2.7223914 C73.2212199,3.03175336 72.6256749,3.58847087 72.2721738,4.30467306 L72.1818324,4.50388908 L64.9902999,21.7862994 C64.8615843,22.0973324 64.5557166,22.300876 64.2184956,22.300876 C63.9187436,22.300876 63.6437646,22.1400514 63.4960627,21.8861172 L63.4468408,21.7866597 L56.2551551,4.50388006 C55.7417307,3.26986839 54.5460669,2.47270503 53.2077334,2.47270503 C51.9373861,2.47270503 50.79354,3.19268861 50.2423457,4.32218899 L50.160308,4.50388908 L42.9687755,21.7862994 C42.8400599,22.0973324 42.5341923,22.300876 42.1969713,22.300876 C41.8972192,22.300876 41.6222402,22.1400514 41.4745384,21.8861172 L41.4253165,21.7866597 L34.2336789,4.50399563 C33.8942528,3.68962542 33.260182,3.05732874 32.445697,2.7223914 C31.6307528,2.3855899 30.7342266,2.38690672 29.920065,2.72575602 C29.1050678,3.06495308 28.4723145,3.69856594 28.1372856,4.51209851 C27.8292367,5.26011698 27.8043041,6.07524669 28.0628353,6.83102792 L28.1403721,7.03558361 L31.714159,15.5645297 C33.6656409,20.2526205 33.4316841,25.3055176 31.0697756,29.4241624 C28.6953845,33.565988 24.4105396,36.3403243 19.3185086,37.0363983 C18.5270733,37.1447358 17.7247108,37.2 16.936255,37.2 C12.9511207,37.2 9.17929896,35.8254319 6.31179012,33.3274034 C2.85505828,30.3176332 0.90991698,25.9078204 0.804520806,20.8769527 L0.8,20.4442327 L0.8,5.77085298 C0.8,3.0302446 3.0306461,0.80178238 5.77251614,0.80178238 C8.44164501,0.80178238 10.6272449,2.91561489 10.7404281,5.55567245 L10.7450323,5.77085298 L10.7450323,20.4442327 C10.7450323,22.7814498 11.4734259,24.6443654 12.8447405,25.8410354 C14.1562915,26.9833051 15.9712096,27.4642269 17.9639669,27.1926049 C20.009177,26.912736 21.5944674,25.9495501 22.4353906,24.4862706 C23.2203699,23.1188267 23.2909053,21.4166154 22.6351531,19.662565 L22.5255759,19.3852201 L17.6569852,7.68201983 C17.1475023,6.45644098 17.1455586,5.10557346 17.6514513,3.87971563 C18.1575763,2.65329501 19.112956,1.69568988 20.3388585,1.18680804 C21.8019709,0.579007794 23.4824218,0.70744379 24.8367592,1.53130844 C25.2310939,1.77146913 25.3561926,2.28523161 25.117381,2.67828296 C24.8790626,3.07285872 24.3629714,3.19816676 23.9689203,2.9590941 C23.0703095,2.41294553 21.9527179,2.32710925 20.9833818,2.72931105 C20.1695056,3.06804157 19.5360384,3.70280855 19.2006024,4.51565354 C18.8925534,5.26367201 18.8676209,6.07880172 19.1263044,6.83494776 L19.2038867,7.03961227 L24.0724545,18.7427576 C25.0437223,21.0772159 24.9809302,23.4136913 23.888782,25.3180774 C22.7839694,27.2459842 20.7581704,28.4997606 18.1942845,28.8509486 C15.7218778,29.1890911 13.431326,28.5693206 11.7476847,27.1024499 C10.0702046,25.6396514 9.15326628,23.4626221 9.07976705,20.796518 L9.07497022,20.4460102 L9.07497022,5.77085298 C9.07497022,3.95273937 7.59386659,2.47270503 5.77429494,2.47270503 C4.01746714,2.47270503 2.5761672,3.85242789 2.47885618,5.58402508 L2.47361966,5.77085298 L2.47361966,20.4442327 C2.47361966,25.169274 4.22682192,29.2965072 7.40698444,32.0694719 C9.96863335,34.3014067 13.3501523,35.5308305 16.9309186,35.5290773 C17.6502248,35.5290773 18.3756929,35.4795689 19.0863889,35.3816128 C23.6637601,34.7552446 27.4992236,32.2806357 29.6128048,28.594171 C31.6501847,25.0419429 31.9017613,20.6900199 30.3178086,16.5926284 L30.163934,16.2092759 L26.5902099,7.68048016 C26.0788169,6.4547637 26.0768718,5.10191994 26.5845364,3.87625896 C27.0902025,2.64909918 28.0449649,1.69259843 29.2720326,1.18323286 C30.4983912,0.674161687 31.8500752,0.672220317 33.0784652,1.17766279 Z M190.406638,25.6210902 C190.975101,25.8451963 191.25045,26.4824977 191.021288,27.0427628 C190.793903,27.6030278 190.147277,27.8744062 189.578815,27.6485493 C188.48335,27.2134151 187.770047,27.0591944 187.333744,27.0117195 L187.125543,26.9954904 C185.919337,26.9307098 184.967162,27.3263969 184.821493,28.0337315 C184.712288,28.5687197 185.191079,28.8289737 186.445556,29.1042569 L187.477279,29.3205903 L187.477279,29.3205903 C189.95927,29.8499657 191.251461,30.8989957 191.331575,32.4440337 L191.335719,32.5298584 C191.373025,33.645136 190.898714,34.5940849 189.998056,35.2033732 C189.276819,35.6918542 188.292668,35.959731 187.075803,35.9982492 L186.923028,36 L186.923028,36 C185.375744,36 183.734309,35.2734063 182.876285,34.8304467 C182.334469,34.5503142 182.124849,33.8885012 182.40908,33.3544985 C182.693311,32.8204959 183.364808,32.6138982 183.906624,32.8940307 C184.64074,33.2732601 185.354014,33.5450412 185.97943,33.6913605 L186.126797,33.7250168 C187.367356,34.0077466 189.096323,33.7472139 189.148915,32.7364562 C189.176791,32.1885816 188.591636,31.8629897 187.623992,31.6068253 L187.309155,31.5289086 L186.520426,31.3618824 C184.978519,31.035126 182.721272,30.3839494 182.607415,28.3908792 L182.602713,28.2981066 C182.536984,26.2969099 184.25836,24.8944965 186.887499,24.8104568 C187.79171,24.7806927 188.9766,25.0538219 190.406638,25.6210902 Z M199.729425,25.1028451 C202.069605,25.651357 203.778752,27.6172989 203.978911,29.9429173 L203.996447,30.2502801 L203.994671,30.2660375 L204,30.2835458 L204,30.2835458 L203.978683,30.4866419 L203.978683,30.4866419 L203.923202,30.6745884 L203.923202,30.6745884 L203.901309,30.7233279 L203.817026,30.8770766 L203.817026,30.8770766 L203.697601,31.0273722 L203.697601,31.0273722 L203.647153,31.0731694 L203.647153,31.0731694 L203.540378,31.1623238 L203.540378,31.1623238 L203.481056,31.1990101 L203.481056,31.1990101 L203.339162,31.2745146 L203.339162,31.2745146 L203.133095,31.3392952 L203.133095,31.3392952 L202.927027,31.3655577 L202.911039,31.3638068 L202.896827,31.3655577 L195.29364,31.3673085 C195.673799,32.4458187 196.631304,33.319482 197.855275,33.6066178 C199.065034,33.890252 200.342299,33.5505913 201.189663,32.7206987 C201.619563,32.2987491 202.31593,32.2987491 202.745829,32.7242004 C203.175729,33.1479008 203.173953,33.8359763 202.742277,34.2579259 C201.360202,35.613067 199.292419,36.1715812 197.345435,35.7163658 C194.739389,35.1053268 192.875898,32.8134926 192.914979,30.2660375 C192.922085,29.8826062 192.970049,29.4991748 193.060648,29.1262484 C193.762344,26.2111194 196.753878,24.4060155 199.729425,25.1028451 Z M137.14347,25.1028451 C139.48365,25.651357 141.192797,27.6172989 141.392955,29.9429173 L141.410492,30.2502801 L141.408716,30.2660375 C141.408716,30.2695392 141.410492,30.2747917 141.412268,30.2835458 L141.394093,30.4681204 L141.394093,30.4681204 L141.378072,30.5371971 L141.378072,30.5371971 L141.328776,30.6914888 L141.328776,30.6914888 L141.313577,30.7233279 L141.229295,30.8770766 L141.229295,30.8770766 L141.10987,31.0273722 L141.10987,31.0273722 L141.059422,31.0731694 L140.952646,31.1623238 L140.952646,31.1623238 L140.893324,31.1990101 L140.893324,31.1990101 L140.768036,31.267106 L140.768036,31.267106 L140.717678,31.2870298 L140.545363,31.3392952 L140.545363,31.3392952 L140.339295,31.3655577 L140.323307,31.3638068 L140.309096,31.3655577 L132.705909,31.3673085 C133.086068,32.4458187 134.043572,33.319482 135.267543,33.6066178 C136.477303,33.890252 137.754567,33.5505913 138.601932,32.7206987 C139.031831,32.2987491 139.728198,32.2987491 140.158098,32.7242004 C140.587998,33.1479008 140.586221,33.8359763 140.154545,34.2579259 C138.77247,35.613067 136.704688,36.1715812 134.757703,35.7163658 C132.151658,35.1053268 130.288166,32.8134926 130.327248,30.2660375 C130.334354,29.8826062 130.382318,29.4991748 130.472916,29.1262484 C131.176389,26.2111194 134.167923,24.4060155 137.14347,25.1028451 Z M178.840201,25.1221042 C179.435981,25.1221042 179.921368,25.5874424 179.942646,26.1711423 L179.943374,34.5748258 C179.943374,35.1771107 179.447745,35.663841 178.838424,35.663841 C178.248645,35.663841 177.770781,35.2068748 177.740581,34.6326032 C176.839923,35.3854593 175.701222,35.8634354 174.390205,35.8634354 C171.394599,35.8634354 169.271246,33.7183286 169.12729,30.6043216 L169.119491,30.2642867 L169.119491,26.2111194 C169.119491,25.6088344 169.613342,25.1221042 170.22444,25.1221042 C170.821957,25.1221042 171.307382,25.5891162 171.328661,26.1712539 L171.329389,30.2642867 C171.329389,31.9188194 172.132342,33.6854051 174.390205,33.6854051 C176.276475,33.6854051 177.614923,31.8781857 177.727555,30.1703105 L177.735252,29.9386327 L177.735252,26.2111194 C177.735252,25.6088344 178.23088,25.1221042 178.840201,25.1221042 Z M161.821852,24.9785363 C164.86668,24.9785363 167.343045,27.4191908 167.343045,30.4201104 C167.343045,33.42103 164.864903,35.8616846 161.821852,35.8616846 C158.777024,35.8616846 156.300659,33.42103 156.300659,30.4201104 C156.300659,27.4191908 158.777024,24.9785363 161.821852,24.9785363 Z M114.209557,24.9785363 C115.454845,24.9785363 116.600653,25.3917317 117.526181,26.0798072 C117.591909,25.5405521 118.053785,25.1221042 118.616918,25.1221042 C119.214436,25.1221042 119.699861,25.5891162 119.72114,26.1712539 L119.721868,34.6291015 C119.721868,35.2313864 119.226239,35.7181167 118.616918,35.7181167 C118.053785,35.7181167 117.591909,35.2996687 117.526181,34.7604136 C116.600653,35.4484891 115.454845,35.8616846 114.209557,35.8616846 C111.164729,35.8616846 108.688364,33.42103 108.688364,30.4201104 C108.688364,27.4191908 111.164729,24.9785363 114.209557,24.9785363 Z M98.3743208,22.55539 C98.8202087,22.55539 99.2234618,22.8197651 99.3940006,23.2259572 L103.009067,31.7927598 L106.624134,23.2259572 C106.858625,22.6709447 107.505251,22.4083204 108.068384,22.6394298 C108.631518,22.8705391 108.897985,23.5078406 108.663494,24.0628531 L104.028747,35.0457986 C103.858208,35.4519908 103.456732,35.7163658 103.009067,35.7163658 C102.56318,35.7163658 102.159926,35.4519908 101.989388,35.0457986 L98.3743208,26.4789961 L94.759254,35.0457986 C94.5887152,35.4519908 94.1854621,35.7163658 93.7395742,35.7163658 C93.2936864,35.7163658 92.8904332,35.4519908 92.7198945,35.0457986 L88.0851479,24.0628531 C87.8506571,23.5078406 88.1171239,22.8705391 88.6802572,22.6394298 C89.2433904,22.4100713 89.8900166,22.6709447 90.1245074,23.2259572 L93.7395742,31.7927598 L97.354641,23.2259572 C97.5251798,22.8197651 97.928433,22.55539 98.3743208,22.55539 Z M123.306735,25.1203534 C123.904252,25.1203534 124.389677,25.5873654 124.410957,26.1695031 L124.411684,26.2321293 C125.498869,25.5072864 126.96266,25.1221042 128.760423,25.1221042 C129.369744,25.1221042 129.865372,25.6088344 129.865372,26.2076177 C129.865372,26.8099026 129.369744,27.2966329 128.760423,27.2966329 C125.954392,27.2966329 124.530705,28.345012 124.418844,30.4989161 L124.411684,30.780781 L124.411684,34.6273507 C124.411684,35.2296356 123.917832,35.7163658 123.306735,35.7163658 C122.709218,35.7163658 122.223793,35.2493538 122.202513,34.6672161 L122.201786,26.2093685 C122.201786,25.6070836 122.695638,25.1203534 123.306735,25.1203534 Z M144.538813,21.2422688 C145.13633,21.2422688 145.621755,21.7092809 145.643034,22.2914185 L145.643762,26.1498404 C146.542643,25.4004859 147.681345,24.9242606 148.988809,24.9242606 C151.9827,24.9242606 154.105993,27.0693674 154.251545,30.1817999 L154.259523,30.5216585 L154.259523,34.5748258 C154.259523,35.1771107 153.763895,35.663841 153.154574,35.663841 C152.557057,35.663841 152.071632,35.1968289 152.050352,34.6146913 L152.048595,30.4191898 C152.015895,28.7950279 151.200117,27.1005401 148.988809,27.1005401 C147.102538,27.1005401 145.76409,28.9077595 145.651459,30.6156347 L145.643762,30.8473125 L145.643762,34.5748258 C145.643762,35.1771107 145.148134,35.663841 144.538813,35.663841 C143.941295,35.663841 143.45587,35.1968289 143.434591,34.6146913 L143.433864,22.331284 C143.433864,21.7289991 143.929492,21.2422688 144.538813,21.2422688 Z M114.209557,27.1548158 C112.383371,27.1548158 110.896486,28.620259 110.896486,30.4201104 C110.896486,32.2199618 112.383371,33.6854051 114.209557,33.6854051 C115.949779,33.6854051 117.37755,32.3526836 117.507948,30.6697966 L117.511969,30.6109507 L117.511969,30.2275193 C117.410712,28.5169601 115.970015,27.1548158 114.209557,27.1548158 Z M161.821852,27.1548158 C159.995666,27.1548158 158.508781,28.620259 158.508781,30.4201104 C158.508781,32.2199618 159.995666,33.6854051 161.821852,33.6854051 C163.648038,33.6854051 165.134923,32.2199618 165.134923,30.4201104 C165.134923,28.6185082 163.648038,27.1548158 161.821852,27.1548158 Z M198.484136,27.1215122 L198.45216,27.1215122 C197.195559,27.1181096 196.038408,27.8143025 195.474289,28.9079559 L195.394897,29.0702219 L195.394897,29.0702219 L195.342657,29.1885 L195.31851,29.2488063 L201.584034,29.2470555 C201.553834,29.1752716 201.523635,29.1052384 201.489882,29.0369561 C201.068865,28.1405321 200.24637,27.4507057 199.221361,27.2108423 C198.974435,27.1530649 198.727509,27.1250517 198.484136,27.1215122 Z M135.898181,27.1215122 L135.866205,27.1215122 C134.609604,27.1181096 133.452453,27.8143025 132.888333,28.9079559 L132.808942,29.0702219 L132.808942,29.0702219 L132.756702,29.1885 L132.732555,29.2488063 L138.998079,29.2470555 C138.967879,29.1752716 138.93768,29.1052384 138.903927,29.0369561 C138.48291,28.1405321 137.660415,27.4507057 136.635406,27.2108423 C136.38848,27.1530649 136.141554,27.1250517 135.898181,27.1215122 Z M128.563237,2.55042664 C129.157281,2.55042664 129.642629,3.01409091 129.663906,3.59607978 L129.664634,5.1591607 L134.315368,5.1591607 C134.746393,5.1591607 135.135918,5.40620451 135.315455,5.78800445 L135.333272,5.82797709 L138.422511,13.1499408 L141.495761,5.86649531 C141.730252,5.31148276 142.375102,5.05060935 142.936459,5.27996785 C143.486794,5.50582469 143.752097,6.11794807 143.546667,6.6636795 L137.687062,20.5524425 C137.511194,20.9691396 137.100835,21.2212589 136.669159,21.2212589 C136.52882,21.2212589 136.384927,21.1932456 136.246365,21.1372191 C135.69603,20.9113623 135.42903,20.2992389 135.636041,19.7551416 L137.228739,15.9775283 L133.57992,7.33018771 L129.664634,7.33018771 L129.664634,14.6433972 C129.664634,15.2421805 129.170782,15.7289107 128.563237,15.7289107 C127.969194,15.7289107 127.483846,15.2652465 127.462569,14.6832576 L127.461841,7.33018771 L126.006932,7.33018771 C125.399388,7.33018771 124.905536,6.84345746 124.905536,6.24467421 C124.905536,5.65919725 125.375984,5.18084849 125.966489,5.15987767 L127.461841,5.1591607 L127.461841,3.63594014 C127.461841,3.03715689 127.955693,2.55042664 128.563237,2.55042664 Z M116.78185,1.45615899 C117.389395,1.45615899 117.883261,1.94288924 117.883261,2.5416725 L117.883261,14.6433972 C117.885023,15.2439313 117.391171,15.7289107 116.78185,15.7289107 C116.172529,15.7289107 115.680454,15.2421805 115.680454,14.6433972 L115.680454,2.5416725 C115.680454,1.94113842 116.174306,1.45615899 116.78185,1.45615899 Z M111.647922,5.46730647 C112.257243,5.46730647 112.749319,5.95403672 112.749319,6.55281998 L112.749319,14.6433972 C112.749319,15.2439313 112.255467,15.7289107 111.647922,15.7289107 C111.038602,15.7289107 110.546526,15.2421805 110.546526,14.6433972 L110.546526,6.55281998 C110.546526,5.95228589 111.040378,5.46730647 111.647922,5.46730647 Z M121.95486,5.46730647 C122.564181,5.46730647 123.056256,5.95403672 123.056256,6.55281998 L123.056256,14.6433972 C123.056256,15.2439313 122.562404,15.7289107 121.95486,15.7289107 C121.345539,15.7289107 120.853463,15.2421805 120.853463,14.6433972 L120.853463,6.55281998 C120.853463,5.95228589 121.347315,5.46730647 121.95486,5.46730647 Z M105.082179,2.54867581 C105.676223,2.54867581 106.161571,3.01234009 106.182848,3.59432896 L106.183576,5.15740988 L107.638485,5.15740988 C108.247805,5.15740988 108.739881,5.64589095 108.739881,6.24467421 C108.739881,6.83015117 108.269433,7.30849992 107.678928,7.32947074 L106.183576,7.33018771 L106.183576,14.6416464 C106.183576,15.2404297 105.6915,15.7271599 105.082179,15.7271599 C104.488136,15.7271599 104.002788,15.2634956 103.981511,14.6815068 L103.980783,7.32843688 L102.525874,7.32843688 C101.91833,7.32843688 101.424478,6.84170663 101.424478,6.24292338 C101.424478,5.65744642 101.894926,5.17909767 102.485431,5.15812685 L103.980783,5.15740988 L103.980783,3.63418931 C103.980783,3.03540606 104.472859,2.54867581 105.082179,2.54867581 Z M98.6052587,2.54867581 C99.2145796,2.54867581 99.7066673,3.03540606 99.7066673,3.63418931 L99.7066673,9.7603373 C99.7102079,13.3565385 97.4132637,15.6798875 93.8568196,15.6798875 C90.3003755,15.6798875 88.0034314,13.3565385 88.0034314,9.7603373 L88.0034314,3.63418931 C88.0034314,3.03365523 88.4972833,2.54867581 89.1048277,2.54867581 C89.7141485,2.54867581 90.2062239,3.03540606 90.2062239,3.63418931 L90.2062239,9.7603373 C90.2062239,12.9022374 92.3275254,13.46933 93.7012115,13.5067741 L93.8550432,13.5088605 C95.217577,13.5088605 97.5038625,13.0221303 97.5038625,9.7603373 L97.5038625,3.63418931 C97.5038625,3.03365523 97.9977143,2.54867581 98.6052587,2.54867581 Z M112.648061,1.40888663 C112.912752,1.66976004 113.06375,2.026929 113.06375,2.39635376 C113.06375,2.76577851 112.912752,3.1246983 112.648061,3.38382088 C112.582333,3.44860152 112.509498,3.50812968 112.433111,3.55715287 C112.354948,3.60967772 112.273231,3.64994677 112.187962,3.68671416 C112.102692,3.72173073 112.015647,3.74624232 111.923271,3.7637506 C111.832673,3.78300971 111.738521,3.79176386 111.647922,3.79176386 C111.557324,3.79176386 111.461396,3.78300971 111.370797,3.7637506 C111.280198,3.74449149 111.191376,3.7199799 111.106106,3.68671416 C111.020837,3.64994677 110.939121,3.60967772 110.860957,3.55715287 C110.78457,3.50812968 110.713512,3.44860152 110.647783,3.38382088 C110.383093,3.12294747 110.232095,2.76577851 110.232095,2.39635376 C110.232095,2.30706152 110.240977,2.21251679 110.260518,2.12322455 C110.276506,2.03568314 110.304929,1.9463909 110.338682,1.86235114 C110.375987,1.77831139 110.420398,1.69777329 110.470139,1.62073685 C110.519879,1.54545123 110.580279,1.47541811 110.646007,1.40888663 C110.711736,1.34235516 110.78457,1.28457783 110.859181,1.23555464 C110.937344,1.18653145 111.019061,1.14276074 111.10433,1.10774418 C111.189599,1.07097678 111.276645,1.04646519 111.36902,1.02720608 C111.82912,0.934412182 112.319419,1.08323258 112.648061,1.40888663 Z M122.231985,1.02895691 C122.322584,1.04821602 122.414959,1.07272761 122.500229,1.10949501 C122.585498,1.14451157 122.667214,1.18653145 122.743602,1.23730547 C122.821765,1.28632866 122.894599,1.34585682 122.960328,1.41063746 C123.026056,1.47541811 123.082903,1.54720206 123.136196,1.62248768 C123.185937,1.69952412 123.230348,1.78006222 123.265877,1.86410197 C123.303182,1.94814173 123.328052,2.03393231 123.347593,2.12497538 C123.367134,2.21426762 123.376016,2.30881234 123.376016,2.39810458 C123.376016,2.48739682 123.367134,2.58194155 123.347593,2.67123379 C123.328052,2.76052603 123.299629,2.84806744 123.265877,2.93210719 C123.230348,3.01614695 123.187713,3.09668505 123.136196,3.17372149 C123.082903,3.25075793 123.022504,3.32254189 122.960328,3.38382088 C122.692085,3.64294346 122.327913,3.79176386 121.953083,3.79176386 C121.862485,3.79176386 121.770109,3.78300971 121.679511,3.7637506 C121.588912,3.74799315 121.50009,3.7199799 121.41482,3.68671416 C121.343762,3.65730025 121.277252,3.62564527 121.21529,3.58726712 L121.169671,3.55715287 C121.10714,3.51793432 121.04802,3.47199259 120.995039,3.42201695 L120.956497,3.38382088 C120.890769,3.32254189 120.83037,3.25075793 120.777076,3.17372149 C120.727336,3.09668505 120.682925,3.01439612 120.647396,2.93210719 C120.611867,2.84806744 120.58522,2.76227686 120.565679,2.67123379 C120.549691,2.58194155 120.540809,2.48739682 120.540809,2.39810458 C120.540809,2.30881234 120.549691,2.21426762 120.565679,2.12497538 C120.58522,2.03568314 120.611867,1.94814173 120.647396,1.86410197 C120.682925,1.78006222 120.725559,1.69952412 120.777076,1.62248768 C120.83037,1.54720206 120.890769,1.47716893 120.956497,1.41063746 C121.283363,1.08848507 121.775439,0.93616301 122.231985,1.02895691 Z" id="Primary-lock-up"></path>
            </g>
        </g>
    </g>
</svg>