<svg id="paysafe" xmlns="http://www.w3.org/2000/svg" viewBox="0 0 798 491.8"><defs><style>.cls-1{fill:#fff;}.cls-10,.cls-2{fill:#f4eff7;}.cls-3,.cls-9{fill:none;}.cls-3{stroke:#f394f8;stroke-miterlimit:10;stroke-width:3px;}.cls-10,.cls-3,.cls-4,.cls-9{stroke-linecap:round;}.cls-4,.cls-5{fill:#75a6fc;}.cls-10,.cls-4,.cls-9{stroke:#550090;stroke-linejoin:round;}.cls-6{fill:#8f5ab8;}.cls-7{fill:#ffd66f;}.cls-8{fill:#550090;}</style></defs><title>Award 01E RGB</title><rect class="cls-1" width="798" height="491.8"/><circle class="cls-2" cx="386.43" cy="253.12" r="197.83"/><path class="cls-3" d="M199.49,353.74A212.22,212.22,0,0,0,386.43,465.38c117.23,0,212.26-95,212.26-212.26A211.34,211.34,0,0,0,554,122.77"/><path class="cls-2" d="M386.43,453.07a197.25,197.25,0,0,0,92.91-23.56c-4-45.52-8.66-91.35-11.77-139-.49-7.49-1-15.1-1.91-22.6l-.09-.76H356.37l-.18.85q-1.16,5.57-2,11.21L330.42,444.93A197.9,197.9,0,0,0,386.43,453.07Z"/><path class="cls-4" d="M427.41,116.73l.13.06,0,0Z"/><path class="cls-5" d="M468,185.74c4.49-10.95,6.65-23.2,3.88-34.7A33.36,33.36,0,0,0,464,135.87c-5-5.31-11.9-8.36-18.6-11.28l-17.91-7.8-5.83,10.81-.75.92A34.78,34.78,0,0,1,408.39,138a8.52,8.52,0,0,1-4.46,1,5.69,5.69,0,0,1-3.75-2.27,9.18,9.18,0,0,1-1.65-4.14l0-1.52-.15-12.24-19.67,4.81A49.13,49.13,0,0,0,349,144.85l-21.77,33.81,29.59,13.73L350.52,219h0l-43.2-33.79a49.52,49.52,0,0,1-21.89-1.93L281.7,182c7.85,13.82,14.39,29.31,24.44,41.63,3.67,4.5,8.11,8.78,13.75,10.18a21.64,21.64,0,0,0,8.27.23c8.73-1.26,16.83-6.69,22.09-13.78l-5.63,23.66,16.83,3.51-2.46,9q-1.38,5.06-2.49,10.18l-.12.55h109.2l-.09-.74c-2.21-17-6.64-33.24-17.83-46.08l2.52-4C456.82,206.56,463.52,196.69,468,185.74Z"/><polygon class="cls-6" points="398.9 169.69 427.43 116.79 433.51 119.48 401.56 176.7 393.27 176.19 391.42 120.61 398.23 119.48 398.8 167.33 398.9 169.69"/><path class="cls-7" d="M283.58,146.57h0c-3.17-4.1-5.25-10.14-6.3-16.79l-.18.8a3.4,3.4,0,0,1-2.19,1.8,9.69,9.69,0,0,1-6-.33l-2.73-1c-1.08,6.08-2.86,11.74-5.79,15.53H250v24.82h43.84V146.57Z"/><path class="cls-7" d="M274,35H242V73.14A32.14,32.14,0,0,0,252.66,97l1.71,1.54a19.08,19.08,0,0,0,12.75,4.89h.7c0,3.64,0,6.74,0,7.85L271,112.9c1.46.57,2.92,1.13,4.32,1.83l.88.09c-.06-1.89-.1-6.45-.11-11.35h.76a19.08,19.08,0,0,0,12.75-4.89L291.36,97A32.14,32.14,0,0,0,302,73.14V35Z"/><circle class="cls-7" cx="396.94" cy="186.36" r="10.78"/><path class="cls-2" d="M350.54,219l6.34-26.64-37.2-17.26A19.72,19.72,0,0,0,313,168c-2.73-1.81-5.87-3-8.4-5.08-3.12-2.57-5.06-6.33-8.12-9a3.72,3.72,0,0,0-1.79-1,1.51,1.51,0,0,0-1.69.88,1.58,1.58,0,0,0,0,.74,8.47,8.47,0,0,0,.83,2.4l4.3,8.52a10.55,10.55,0,0,1,1.14,3v0a2.59,2.59,0,0,1-2.59,3H266.6a2.26,2.26,0,0,0,.62,2.81c.73.65,1.75.87,2.52,1.47s1.23,1.62,2,2.27a9.14,9.14,0,0,0,3.44,1.32,25.37,25.37,0,0,1,3.19,1.3,70.84,70.84,0,0,0,7.08,2.75,49.52,49.52,0,0,0,21.89,1.93Z"/><path class="cls-2" d="M283.6,146.57h7.87l-7.38-13a56.68,56.68,0,0,0,1.43-8.45,19,19,0,0,0-1.14-8.42c-.91-2.23-2.38-4.2-3.27-6.44a13.36,13.36,0,0,1-.72-7.64l-.12,0a19.07,19.07,0,0,1-4,.76l-.08.06c0,2.72,0,7.12.12,11.72l-.88-.46c-1.4-.69-2.86-1.26-4.32-1.83l-3.25-1.26v-.32c.05-3.13,0-1.13,0-3.13h0c-1.9,0-3.89-.19-5.5.57a5.55,5.55,0,0,0-2.73,4.68,44,44,0,0,0,.32,5.66,17.32,17.32,0,0,1-.44,4.72c-.3,1.3-.74,2.72-.13,3.9s2.36,1.71,3.79,2.15c2,.6,3.8,1.53,5.74,2.18a9.68,9.68,0,0,0,6,.33,3.4,3.4,0,0,0,2.19-1.8l.18-.8c1.05,6.65,3.14,12.69,6.31,16.79"/><path class="cls-2" d="M398.31,114.77l.24,17.92a9.19,9.19,0,0,0,1.65,4.14,5.69,5.69,0,0,0,3.75,2.27,8.52,8.52,0,0,0,4.46-1A34.78,34.78,0,0,0,421,128.53l.86-1.12,5.74-10.64h-5.52a28,28,0,0,1,1.41-27.47,5.8,5.8,0,0,0,4.45-2,11.52,11.52,0,0,0,2.36-4.39,23.13,23.13,0,0,0,1-5.21,11.87,11.87,0,0,0-.38-4.59,6.06,6.06,0,0,0-2.79-3.55,6,6,0,0,0-5.63.31,10.45,10.45,0,0,0-3.87,4.33,24.18,24.18,0,0,1-3.49-5.88,36.12,36.12,0,0,1-.83-25A34.32,34.32,0,0,0,377.13,64c-2.87,6.92-2.25,14.84-.91,22.2s3.36,14.2,7.54,20.4c2.71,4,6.39,8,11.22,8.43Z"/><path class="cls-8" d="M427.5,116.74l-.09,0-.09,0H422l-.22-.46a28.35,28.35,0,0,1,1.39-26.58l.23-.37.44,0a6,6,0,0,0,4-2,11.32,11.32,0,0,0,2.36-4.4,23.13,23.13,0,0,0,1-5.21,11.75,11.75,0,0,0-.38-4.59,6.1,6.1,0,0,0-2.8-3.56,5.21,5.21,0,0,0-2.43-.58,6.5,6.5,0,0,0-3.22.88,9.64,9.64,0,0,0-3.26,3.27l-.65,1-.7-1a22.4,22.4,0,0,1-2.72-4.85,36.26,36.26,0,0,1-.9-24.81l.07-.21.16-.15a11.74,11.74,0,0,1,7.73-2.85,9.32,9.32,0,0,1,5.4,1.56C430.66,44,431.74,48,432.11,51c.21,1.68.28,3.42.34,5.11.17,4.19.33,8.42,2.41,12a24.86,24.86,0,0,0,5.69,6,32.6,32.6,0,0,1,4.69,4.55c3.36,4.28,4.27,10.06,4.69,14.62a8.79,8.79,0,0,0,.64,3.09,8.45,8.45,0,0,0,2.84,2.92c.34.25.67.5,1,.76,4.78,3.9,6.68,10.85,4.42,16.18l-.21.5Z"/><path class="cls-8" d="M358.62,115v-.82a13.4,13.4,0,0,1,3.67-9.53,29,29,0,0,1-1.21-16.89,29.72,29.72,0,0,1,8.39-15c-1.11-6.54-1.33-11.48-.74-16A30.82,30.82,0,0,1,374.52,42,25.31,25.31,0,0,1,403,33.56c3.8,1.35,8.59,4.25,10.64,8.34l.68,1.35-1.5-.18A34.34,34.34,0,0,0,377.09,64a25.47,25.47,0,0,0-1.41,4.64c-1.27,6.24-.4,12.67.5,17.57,1.07,5.89,2.9,13.53,7.55,20.41a22.52,22.52,0,0,0,6.65,6.89l2.49,1.51Z"/><path class="cls-9" d="M414.28,43.3A34.32,34.32,0,0,0,377.11,64c-2.87,6.92-2.25,14.84-.91,22.2s3.36,14.2,7.54,20.4c2.71,4,6.39,8,11.22,8.43a14.52,14.52,0,0,0,8.2-2.31,32.85,32.85,0,0,0,8.22-6.66"/><path class="cls-9" d="M418.6,74.21a10.45,10.45,0,0,1,3.87-4.33,6,6,0,0,1,5.63-.31,6.06,6.06,0,0,1,2.79,3.55,11.87,11.87,0,0,1,.38,4.59,23.13,23.13,0,0,1-1,5.21,11.52,11.52,0,0,1-2.36,4.39,5.8,5.8,0,0,1-4.45,2A28,28,0,0,0,422,116.76h36.6c2.69-5.55.59-12.81-4.2-16.71-1.38-1.13-3.05-2.07-3.83-3.68a8.93,8.93,0,0,1-.64-3.08c-.48-5.17-1.49-10.54-4.7-14.63-3.06-3.9-7.87-6.3-10.39-10.58-2.95-5-2-11.29-2.76-17.06-.43-3.48-1.66-7.14-4.53-9.16-3.82-2.69-9.94-1.78-13.32,1.44"/><path class="cls-9" d="M414.28,43.3a36.12,36.12,0,0,0,.83,25,24.18,24.18,0,0,0,3.49,5.88"/><path class="cls-9" d="M395,115.06H358.62a13.73,13.73,0,0,1,3.66-10.39,28.74,28.74,0,0,1-1.22-16.88,29.65,29.65,0,0,1,8.39-15,54,54,0,0,1-.74-16A30.86,30.86,0,0,1,374.51,42,25.29,25.29,0,0,1,403,33.54c4.58,1.63,9.76,5.12,11.23,9.75"/><path class="cls-9" d="M391.51,70.77l-4.34,13.39a2.83,2.83,0,0,0,1.37,3.37l2,1"/><path class="cls-9" d="M398.29,89.42a6.26,6.26,0,0,1-2.62,2.7,14.71,14.71,0,0,1-3.56,1.36"/><path class="cls-9" d="M375.69,68.7a10,10,0,0,1,10-2.08"/><path class="cls-9" d="M396.73,66.44a9.46,9.46,0,0,1,10.61-2.29,17,17,0,0,1,3,1.77"/><path class="cls-9" d="M398.11,73.17a10.49,10.49,0,0,1,8.29-.7"/><path class="cls-9" d="M378.15,75.93a10.49,10.49,0,0,1,8.29-.7"/><line class="cls-9" x1="392.12" y1="86.48" x2="394.48" y2="85.59"/><path class="cls-9" d="M427.62,77.81a8.85,8.85,0,0,0,.43-2.36,3,3,0,0,0-.83-2.19,2.48,2.48,0,0,0-1.89-.63,3.16,3.16,0,0,0-1.83.82,6.22,6.22,0,0,0-1.39,2.09,20.47,20.47,0,0,0-1.37,4.08l2.12,4.17"/><line class="cls-9" x1="398.29" y1="114.77" x2="399.02" y2="175.15"/><line class="cls-9" x1="399.02" y1="169.67" x2="427.55" y2="116.76"/><path class="cls-9" d="M427.41,116.74l18,7.86c6.69,2.92,13.58,6,18.6,11.28A33.36,33.36,0,0,1,471.89,151c2.77,11.5.61,23.75-3.88,34.7s-11.19,20.82-17.85,30.61l-15.25,22.42c-3.64,5.35-7.47,10.88-13.11,14.06-8.8,5-19.71,3-29.59,1l-47.61-9.92,12.25-51.49,59.38,22.82"/><path class="cls-9" d="M447.43,146.4c-9.37,9-16,20.39-21.93,31.9-5.73,11-11,22.33-16.29,33.6l13.89-1.82"/><circle class="cls-9" cx="396.94" cy="186.36" r="10.78"/><path class="cls-9" d="M356.86,192.4l-37.2-17.26A19.72,19.72,0,0,0,313,168c-2.73-1.81-5.87-3-8.4-5.08-3.12-2.57-5.06-6.33-8.12-9a3.72,3.72,0,0,0-1.79-1,1.51,1.51,0,0,0-1.69.88,1.58,1.58,0,0,0,0,.74,8.47,8.47,0,0,0,.83,2.4l4.3,8.52a10.55,10.55,0,0,1,1.14,3v0a2.59,2.59,0,0,1-2.59,3H266.58a2.26,2.26,0,0,0,.62,2.81c.73.65,1.75.87,2.52,1.47s1.23,1.62,2,2.27a9.14,9.14,0,0,0,3.44,1.32,25.37,25.37,0,0,1,3.19,1.3,70.84,70.84,0,0,0,7.08,2.75,49.52,49.52,0,0,0,21.89,1.93L350.52,219"/><line class="cls-9" x1="269.21" y1="175.34" x2="292" y2="177"/><line class="cls-9" x1="275.15" y1="179.27" x2="292" y2="180.5"/><path class="cls-9" d="M398.34,118.92l-19.67,4.81A49.13,49.13,0,0,0,349,144.86l-21.77,33.81"/><line class="cls-9" x1="391.54" y1="120.59" x2="393.4" y2="176.17"/><line class="cls-9" x1="401.69" y1="176.68" x2="433.63" y2="119.46"/><path class="cls-9" d="M267.09,111.37,271,112.9c1.46.57,2.92,1.13,4.32,1.83a8.69,8.69,0,0,1,2.9,2.07,3.39,3.39,0,0,1,.76,1.48c.33,1.68-1.06,3.22-1.2,4.92-.07.81.15,1.63.05,2.44s-.41,1.39-.52,2.1a12.87,12.87,0,0,1-.26,2.84,3.4,3.4,0,0,1-2.19,1.8,9.68,9.68,0,0,1-6-.33c-1.94-.64-3.78-1.58-5.74-2.18-1.43-.44-3.11-.82-3.79-2.15s-.17-2.6.13-3.9a17.32,17.32,0,0,0,.44-4.72,44,44,0,0,1-.32-5.66,5.55,5.55,0,0,1,2.73-4.68c1.61-.76,3.6-.57,5.5-.57"/><path class="cls-9" d="M266.16,131c-1.08,6.08-2.86,11.74-5.79,15.53"/><path class="cls-9" d="M267.82,103.47c0,2,0,4.72,0,7.85"/><path class="cls-9" d="M283.58,146.57c-3.17-4.1-5.25-10.14-6.31-16.79l-12.74-3.94"/><path class="cls-9" d="M276.12,103.47c0,2.72,0,6.75.12,11.35"/><polyline class="cls-9" points="293.81 157.51 293.81 171.39 249.97 171.39 249.97 146.57 293.81 146.57 293.81 152.9"/><path class="cls-9" d="M280.22,103.47a13.42,13.42,0,0,0,.86,6.78c.89,2.24,2.36,4.21,3.27,6.44a19,19,0,0,1,1.14,8.42,56.68,56.68,0,0,1-1.43,8.45l7.38,13"/><path class="cls-9" d="M350.23,220.23c-5.25,7.09-13.35,12.52-22.09,13.78a21.64,21.64,0,0,1-8.27-.23c-5.63-1.39-10.08-5.68-13.75-10.18C296.08,211.29,289.55,195.8,281.7,182"/><path class="cls-9" d="M363.64,195c-1.67-4.7-2.68-9-2-13.94a29.64,29.64,0,0,1,3.44-9.54c3.5-6.61,8.08-12.58,12.64-18.5"/><line class="cls-9" x1="278.18" y1="121.78" x2="265.86" y2="117"/><line class="cls-9" x1="277.87" y1="125.64" x2="265.27" y2="121.78"/><path class="cls-9" d="M330.42,442.9,354.21,279.2A189.73,189.73,0,0,1,359,256.41l2.46-9"/><path class="cls-9" d="M447.65,220.32c16.44,18.88,18.3,45.19,19.93,70.18,4.45,68.27,6,69.71,11.77,137.32"/><line class="cls-9" x1="356.37" y1="267.14" x2="465.57" y2="267.14"/><path class="cls-9" d="M421,128.53a34.78,34.78,0,0,1-12.56,9.52,8.52,8.52,0,0,1-4.46,1,5.69,5.69,0,0,1-3.75-2.27,9.19,9.19,0,0,1-1.65-4.14"/><line class="cls-9" x1="402.68" y1="162.89" x2="403.93" y2="139.1"/><line class="cls-9" x1="400.24" y1="209.08" x2="400.91" y2="196.37"/><line class="cls-9" x1="397.19" y1="267.14" x2="397.83" y2="254.91"/><polyline class="cls-9" points="411.57 146.4 403.93 139.1 398.65 144.49"/><line class="cls-9" x1="345.53" y1="446.71" x2="352.96" y2="380.19"/><line class="cls-9" x1="407.7" y1="449.81" x2="407.7" y2="426.95"/><path class="cls-9" d="M242,35h60V73.14A32.14,32.14,0,0,1,291.36,97l-1.71,1.54a19.08,19.08,0,0,1-12.75,4.89h-9.77a19.08,19.08,0,0,1-12.75-4.89L252.66,97A32.14,32.14,0,0,1,242,73.14V35"/><path class="cls-9" d="M242,46.37l-9.64-9.64a9.23,9.23,0,0,0-13.06,0h0a9.23,9.23,0,0,0,0,13.06L242,72.51"/><path class="cls-9" d="M302,46.37l9.64-9.64a9.23,9.23,0,0,1,13.06,0h0a9.23,9.23,0,0,1,0,13.06L302,72.51"/><polygon class="cls-10" points="293.08 62.93 286.47 62.93 281.74 35 288.35 35 293.08 62.93"/><polygon class="cls-10" points="253.29 53.27 259.9 53.27 262.96 35 256.35 35 253.29 53.27"/><polyline class="cls-9" points="393.05 182.88 397.01 180.29 397.01 190.82"/><line class="cls-9" x1="394.19" y1="190.82" x2="399.78" y2="190.82"/><polygon class="cls-8" points="408.07 109.81 398.81 125.11 398.47 115.09 400.87 113.63 408.07 109.81"/><polygon class="cls-8" points="356.48 192.23 344 213.95 350.52 219.05 356.48 192.23"/><polygon class="cls-8" points="428.66 267.14 466.85 280.05 465.96 272.94 465.33 267.14 428.66 267.14"/><polygon class="cls-8" points="267.71 103.76 276.3 103.76 276.3 109 267.71 106.74 267.71 103.76"/></svg>