<?xml version="1.0" encoding="UTF-8"?>
<svg width="639px" height="449px" viewBox="0 0 639 449" version="1.1" xmlns="http://www.w3.org/2000/svg" xmlns:xlink="http://www.w3.org/1999/xlink">
    <g id="thinking-Page-1" stroke="none" stroke-width="1" fill="none" fill-rule="evenodd">
        <g id="thinking-Hosted-Payment---Error---Unknown" transform="translate(-364.000000, -211.000000)">
            <g id="thinking-Thinking+03E+RGB" transform="translate(364.000000, 211.000000)">
                <g id="thinking-bg" transform="translate(0.000000, 30.400000)" fill="#FFFFFF" fill-rule="nonzero">
                    <rect id="thinking-Rectangle" x="0" y="0" width="638.4" height="393.44"></rect>
                </g>
                <g id="thinking-transparent_bg" transform="translate(0.000000, 30.400000)">
                    <rect id="thinking-Rectangle" x="0" y="0" width="638.4" height="393.44"></rect>
                </g>
                <g id="thinking-illustration" transform="translate(85.600000, 0.000000)">
                    <circle id="thinking-Oval" fill="#F4EFF7" fill-rule="nonzero" transform="translate(224.294622, 224.395496) rotate(-45.000000) translate(-224.294622, -224.395496) " cx="224.294622" cy="224.395496" r="158.264"></circle>
                    <path d="M114.888,93.832 C106.467255,100.883309 98.7461799,108.7303 91.832,117.264 C41.536,179.336 40.536,270.288 93.784,333.808" id="thinking-Path" stroke="#F394F8" stroke-width="2.4" stroke-linecap="round"></path>
                    <path d="M206.888,272.464 C213.96,288.52 225.584,307.24 236.136,310.744 L210.608,368.992 C199.824,393.584 165.08,393.968 153.752,369.624 L112.48,280.944 C107.875664,271.052854 107.663657,259.676988 111.89625,249.621152 C116.128842,239.565316 124.412186,231.765221 134.704,228.144 L189.864,208.8" id="thinking-Path" stroke="#550090" stroke-width="0.8" fill="#C3A4DA" fill-rule="nonzero" stroke-linecap="round" stroke-linejoin="round"></path>
                    <path d="M196.52,384.168 L315.72,384.168 C323.003437,384.168 329.89836,380.883033 334.484925,375.22513 C339.071491,369.567227 340.859833,362.14165 339.352,355.016 L316.584,247.424 C313.370537,232.161623 301.446377,220.237463 286.184,217.024 L245.312,208.36" id="thinking-Path" stroke="#550090" stroke-width="0.8" fill="#C3A4DA" fill-rule="nonzero" stroke-linecap="round" stroke-linejoin="round"></path>
                    <path d="M192.328,234.184 L194.656,294.344 L206.888,272.464 C213.96,288.52 225.584,307.24 236.136,310.744 L217.352,353.6 C226.414975,350.675893 235.641441,348.285133 244.984,346.44 L244.984,243.656 L192.328,234.184 Z" id="thinking-Path" stroke="#550090" stroke-width="0.8" fill="#FFD76F" fill-rule="nonzero" stroke-linecap="round" stroke-linejoin="round"></path>
                    <path d="M221,115.584 C224.56,117.464 228.2,119.376 231.096,122.144 C235.432,126.256 237.928,131.936 239.632,137.664 C241.336,143.392 242.376,149.304 244.376,154.928 C245.784,158.88 247.648,162.648 249.048,166.6 C252.56,176.512 252.76,188.296 246.6,196.816 C245.638459,198.285125 244.316385,199.483255 242.76,200.296 C241.384858,200.827591 239.92961,201.122427 238.456,201.168 C230.744,201.84 222.936,202.512 215.256,201.312 C207.576,200.112 200,196.856 195.064,190.912" id="thinking-Path" stroke="#550090" stroke-width="0.8" stroke-linecap="round" stroke-linejoin="round"></path>
                    <path d="M175.672,179.776 C174.072,177.488 172.36,175.064 172.088,172.272 C171.919302,171.384838 172.163687,170.46913 172.752,169.784 C173.64,168.984 175.064,169.248 176.176,169.728 C178.984,170.952 181.304,173.048 183.568,175.112 L184.776,176.208 C184.832,176.256 184.888,176.336 184.856,176.4 C184.824,176.464 184.688,176.4 184.76,176.344 L186.36,184.784" id="thinking-Path" stroke="#550090" stroke-width="0.8" stroke-linecap="round" stroke-linejoin="round"></path>
                    <path d="M228.056,100.68 C225.392,97.92 215.432,91.88 204.096,102.848 L199.6,106.848 C182,106.304 167.712,108.672 160.216,121.2 C152.72,133.728 159.216,151.256 165.64,161.72 C169.744,168.408 170.392,169.536 170.392,169.536 L212.088,190.336 L235.768,128.248 C237.224,120.696 230.72,103.44 228.056,100.68 Z" id="thinking-Path" stroke="#550090" stroke-width="0.8" fill="#550090" fill-rule="nonzero" stroke-linecap="round" stroke-linejoin="round"></path>
                    <path d="M223.296,112.12 C223.296,112.12 222.144,119.216 205.776,120.992 C189.408,122.768 182.304,131.44 182.304,131.44 C185.659903,135.659413 188.386886,140.34271 190.4,145.344 C193.848,153.824 184.68,154.024 184.68,154.024 L190.4,170.192 L185.648,172.408 C183.485042,169.267147 180.080928,167.202547 176.296,166.736 C174.994716,166.516721 173.657492,166.700973 172.464,167.264 C171.154353,168.044118 170.238145,169.34426 169.944,170.84 C169.667847,172.322423 169.708744,173.84652 170.064,175.312 C170.769378,178.339907 171.966602,181.231622 173.608,183.872 C174.554663,185.595727 175.803921,187.134944 177.296,188.416 C180.002732,190.527455 183.592658,191.129286 186.84,190.016 C186.84,190.016 192.6,222.016 192.336,234.216 L194.672,294.56" id="thinking-Path" stroke="#550090" stroke-width="0.8" stroke-linecap="round" stroke-linejoin="round"></path>
                    <path d="M166.232,345.808 L216.52,255.088 L217.12,219.888 C217.15533,217.601055 218.12346,215.427821 219.8,213.872 L231.936,202.608 C232.933496,201.679147 234.309693,201.273387 235.651555,201.512499 C236.993416,201.751612 238.144747,202.607764 238.76,203.824 C239.306499,204.834054 239.613086,205.956381 239.656,207.104" id="thinking-Path" stroke="#550090" stroke-width="0.8" stroke-linecap="round" stroke-linejoin="round"></path>
                    <polyline id="thinking-Path" stroke="#550090" stroke-width="0.8" stroke-linecap="round" stroke-linejoin="round" points="183.152 211.128 168.928 264.032 193.448 263.232"></polyline>
                    <line x1="179.208" y1="258.376" x2="188.12" y2="258.376" id="thinking-Path" stroke="#550090" stroke-width="0.8" stroke-linecap="round" stroke-linejoin="round"></line>
                    <path d="M141.712,248 C157.624,254.048 168.912,281.92 168.912,281.92 L184,313.816" id="thinking-Path" stroke="#550090" stroke-width="0.8" stroke-linecap="round" stroke-linejoin="round"></path>
                    <path d="M248.864,222.4 L248.864,222.32 L249.336,217.728 C249.439417,216.710125 249.059578,215.702652 248.309902,215.006412 C247.560226,214.310172 246.527465,214.005733 245.52,214.184 L245.84,213.8 L245.84,210.184 C245.838989,208.862875 245.123776,207.645538 243.970238,207.001548 C242.8167,206.357559 241.405126,206.387568 240.28,207.08 L239.84,207.352 L239.656,207.072 C239.613086,205.924381 239.306499,204.802054 238.76,203.792 C238.144747,202.575764 236.993416,201.719612 235.651555,201.480499 C234.309693,201.241387 232.933496,201.647147 231.936,202.576 L219.8,213.84 C218.12346,215.395821 217.15533,217.569055 217.12,219.856 L216.52,255.056 L207.12,272.016 C208.896,277.688 213.984,288.928 225.72,302.784 L235.648,262.4 C240.448,256.8 243.424,249.72 244.864,242.736 L244.984,243.672 L246.168,243.88 C247.400205,244.111012 248.602619,243.354711 248.928,242.144 L253.04,227.512 C253.411636,226.245546 253.134611,224.877286 252.299613,223.855133 C251.464615,222.83298 250.179139,222.288525 248.864,222.4 Z" id="thinking-Path" stroke="#550090" stroke-width="0.8" fill="#F4EFF7" fill-rule="nonzero" stroke-linecap="round" stroke-linejoin="round"></path>
                    <path d="M175.648,328.8 C166.432,328.632 153.416,337.704 153.416,337.704" id="thinking-Path" stroke="#550090" stroke-width="0.8" stroke-linecap="round" stroke-linejoin="round"></path>
                    <line x1="176.632" y1="327.048" x2="158.048" y2="326.184" id="thinking-Path" stroke="#550090" stroke-width="0.8" stroke-linecap="round" stroke-linejoin="round"></line>
                    <path d="M226.84,215.384 L240.28,207.112 C241.405126,206.419568 242.8167,206.389559 243.970238,207.033548 C245.123776,207.677538 245.838989,208.894875 245.84,210.216 L245.84,213.832" id="thinking-Path" stroke="#550090" stroke-width="0.8" stroke-linecap="round" stroke-linejoin="round"></path>
                    <path d="M233.68,220.648 L244.496,214.584 C245.561339,213.980561 246.875142,214.025779 247.896471,214.701038 C248.917799,215.376296 249.473975,216.567428 249.336,217.784 L248.864,222.376" id="thinking-Path" stroke="#550090" stroke-width="0.8" stroke-linecap="round" stroke-linejoin="round"></path>
                    <path d="M223.296,112.12 L221,115.584 L221,115.584 C222.103329,114.692903 222.905079,113.483293 223.296,112.12 L223.296,112.12 Z" id="thinking-Path" stroke="#550090" stroke-width="0.8" fill="#F4EFF7" fill-rule="nonzero" stroke-linecap="round" stroke-linejoin="round"></path>
                    <path d="M234.008,201.544 C234.368512,201.471029 234.736464,201.441485 235.104,201.456 L238.456,201.168 C239.92961,201.122427 241.384858,200.827591 242.76,200.296 C244.316385,199.483255 245.638459,198.285125 246.6,196.816 C252.76,188.296 252.56,176.512 249.048,166.6 C247.648,162.648 245.784,158.88 244.376,154.928 C242.376,149.328 241.344,143.384 239.632,137.664 C237.92,131.944 235.432,126.256 231.096,122.144 C228.176,119.376 224.568,117.464 221.008,115.592 C218.768,117.656 214.368,120.056 205.808,120.992 C189.44,122.768 182.336,131.44 182.336,131.44 C185.680643,135.6614 188.396791,140.344599 190.4,145.344 C193.848,153.824 184.68,154.024 184.68,154.024 L190.4,170.192 L185.648,172.408 C183.485042,169.267147 180.080928,167.202547 176.296,166.736 C174.994716,166.516721 173.657492,166.700973 172.464,167.264 C171.154353,168.044118 170.238145,169.34426 169.944,170.84 C169.667847,172.322423 169.708744,173.84652 170.064,175.312 C170.769378,178.339907 171.966602,181.231622 173.608,183.872 C174.554663,185.595727 175.803921,187.134944 177.296,188.416 C180.002732,190.527455 183.592658,191.129286 186.84,190.016 C186.84,190.016 191.912,218.176 192.32,231.744 L192.32,231.264 C192.32,240.736 210.064,244.064 216.752,242.704 L217.144,219.92 C217.17933,217.633055 218.14746,215.459821 219.824,213.904 L230.656,203.856" id="thinking-Path" stroke="#550090" stroke-width="0.8" fill="#F4EFF7" fill-rule="nonzero" stroke-linecap="round" stroke-linejoin="round"></path>
                    <path d="M235.104,201.456 L234.008,201.544 C233.23253,201.701093 232.515507,202.069294 231.936,202.608 L230.632,203.824" id="thinking-Path" stroke="#550090" stroke-width="0.8" fill="#F4EFF7" fill-rule="nonzero" stroke-linecap="round" stroke-linejoin="round"></path>
                    <path d="M239.656,225.704 L247.8,222.672 C249.203855,222.156424 250.778061,222.467048 251.880851,223.477237 C252.983641,224.487427 253.430788,226.028424 253.04,227.472 L248.928,242.104 C248.602619,243.314711 247.400205,244.071012 246.168,243.84 L244.984,243.632" id="thinking-Path" stroke="#550090" stroke-width="0.8" stroke-linecap="round" stroke-linejoin="round"></path>
                    <path d="M249.464,230.208 L245.84,231.128 C246.296,241.088 243.144,253.616 235.648,262.384 L225.72,302.816" id="thinking-Path" stroke="#550090" stroke-width="0.8" stroke-linecap="round" stroke-linejoin="round"></path>
                    <path d="M206.888,272.464 C213.96,288.52 225.584,307.24 236.136,310.744 L210.608,368.992 C199.824,393.584 165.08,393.968 153.752,369.624 L112.48,280.944 C107.875664,271.052854 107.663657,259.676988 111.89625,249.621152 C116.128842,239.565316 124.412186,231.765221 134.704,228.144 L189.864,208.8" id="thinking-Path" stroke="#550090" stroke-width="0.8" stroke-linecap="round" stroke-linejoin="round"></path>
                    <path d="M236.136,310.744 C238.872,309.52 233.552,299.456 227.976,293.648" id="thinking-Path" stroke="#550090" stroke-width="0.8" stroke-linecap="round" stroke-linejoin="round"></path>
                    <path d="M197.688,289.064 C205.688,303.304 218.008,322.664 231.288,321.864" id="thinking-Path" stroke="#550090" stroke-width="0.8" stroke-linecap="round" stroke-linejoin="round"></path>
                    <path d="M192.296,231.2 C192.296,240.672 210.04,244 216.728,242.64" id="thinking-Path" stroke="#550090" stroke-width="0.8" stroke-linecap="round" stroke-linejoin="round"></path>
                    <path d="M218.92,214.824 L218.92,204.176 C218.92559,203.248526 219.504173,202.421157 220.373411,202.097637 C221.242649,201.774117 222.22138,202.021872 222.832,202.72 L226.832,207.336" id="thinking-Path" stroke="#550090" stroke-width="0.8" stroke-linecap="round" stroke-linejoin="round"></path>
                    <path d="M196.52,384.168 L315.72,384.168 C323.003437,384.168 329.89836,380.883033 334.484925,375.22513 C339.071491,369.567227 340.859833,362.14165 339.352,355.016 L316.584,247.424 C313.370537,232.161623 301.446377,220.237463 286.184,217.024 L245.312,208.36" id="thinking-Path" stroke="#550090" stroke-width="0.8" stroke-linecap="round" stroke-linejoin="round"></path>
                    <path d="M300.336,337.72 C300.336,337.72 245.8,343.776 216.728,353.816" id="thinking-Path" stroke="#550090" stroke-width="0.8" stroke-linecap="round" stroke-linejoin="round"></path>
                    <path d="M285.96,237.096 C272.952,250.912 282.76,317.52 285.96,339.544" id="thinking-Path" stroke="#550090" stroke-width="0.8" stroke-linecap="round" stroke-linejoin="round"></path>
                    <line x1="244.984" y1="243.656" x2="244.984" y2="346.448" id="thinking-Path" stroke="#550090" stroke-width="0.8" stroke-linecap="round" stroke-linejoin="round"></line>
                    <polyline id="thinking-Path" stroke="#550090" stroke-width="0.8" stroke-linecap="round" stroke-linejoin="round" points="250.264 209.424 267.008 264.032 244.984 264.032"></polyline>
                    <circle id="thinking-Oval" stroke="#550090" stroke-width="0.8" fill="#550090" fill-rule="nonzero" stroke-linecap="round" stroke-linejoin="round" cx="251.232" cy="286.248" r="2.072"></circle>
                    <circle id="thinking-Oval" stroke="#550090" stroke-width="0.8" fill="#550090" fill-rule="nonzero" stroke-linecap="round" stroke-linejoin="round" cx="251.232" cy="308.672" r="2.072"></circle>
                    <circle id="thinking-Oval" stroke="#550090" stroke-width="0.8" fill="#550090" fill-rule="nonzero" stroke-linecap="round" stroke-linejoin="round" cx="251.232" cy="331.096" r="2.072"></circle>
                    <path d="M288.064,339.264 C295.8,330.16 313.808,327.928 313.808,327.928" id="thinking-Path" stroke="#550090" stroke-width="0.8" stroke-linecap="round" stroke-linejoin="round"></path>
                    <path d="M224,145.296 C228.601411,149.467789 232.880311,153.982028 236.8,158.8 C237.173325,159.19706 237.447452,159.676782 237.6,160.2 C237.669626,160.911143 237.488517,161.624258 237.088,162.216 C236.272684,163.638168 235.185339,164.885896 233.888,165.888" id="thinking-Path" stroke="#550090" stroke-width="0.8" stroke-linecap="round" stroke-linejoin="round"></path>
                    <path d="M227.952,164.24 C228.807999,163.661989 229.739381,163.204374 230.72,162.88" id="thinking-Path" stroke="#550090" stroke-width="0.8" stroke-linecap="round" stroke-linejoin="round"></path>
                    <path d="M211.456,138.312 C211.897309,138.404963 212.310902,138.599433 212.664,138.88 C213.015861,139.177416 213.16791,139.649079 213.056,140.096 C212.84,140.744 212.024,140.896 211.344,141.008 C208.020692,141.279805 204.727893,141.844667 201.504,142.696 C200.290517,143.143374 199.032714,143.459837 197.752,143.64 C197.159017,143.746063 196.553438,143.537138 196.152,143.088 C195.887248,142.584011 195.97773,141.966792 196.376,141.56 C196.773554,141.170564 197.255284,140.877694 197.784,140.704 C199.616,139.968 201.488,139.496 203.384,138.928 C205.078348,138.371501 206.841968,138.05378 208.624,137.984 C209.57844,137.965796 210.530988,138.076119 211.456,138.312 L211.456,138.312 Z" id="thinking-Path" stroke="#550090" stroke-width="0.8" fill="#550090" fill-rule="nonzero" stroke-linecap="round" stroke-linejoin="round"></path>
                    <path d="M239.456,138.616 C235.848,139.528 233.464,140.736 229.856,141.872 C229.364072,142.086915 228.808268,142.104105 228.304,141.92 C227.976977,141.685157 227.759743,141.327221 227.702382,140.928718 C227.645022,140.530215 227.752487,140.125541 228,139.808 C228.525992,139.186013 229.229344,138.73944 230.016,138.528 C232.861698,137.409986 235.780504,136.487836 238.752,135.768" id="thinking-Path" stroke="#550090" stroke-width="0.8" fill="#550090" fill-rule="nonzero" stroke-linecap="round" stroke-linejoin="round"></path>
                    <path d="M201.984,153.144 C204.71916,150.088108 208.707619,148.459684 212.8,148.728" id="thinking-Path" stroke="#550090" stroke-width="0.8" stroke-linecap="round" stroke-linejoin="round"></path>
                    <path d="M207.12,154.064 C208.848505,154.16689 210.570846,153.7786 212.088,152.944" id="thinking-Path" stroke="#550090" stroke-width="0.8" stroke-linecap="round" stroke-linejoin="round"></path>
                    <ellipse id="thinking-Oval" stroke="#550090" stroke-width="0.8" fill="#550090" fill-rule="nonzero" stroke-linecap="round" stroke-linejoin="round" transform="translate(209.354119, 151.406298) rotate(-15.170000) translate(-209.354119, -151.406298) " cx="209.354119" cy="151.406298" rx="1.272" ry="2.432"></ellipse>
                    <path d="M229.496,146.296 C232.153738,143.928455 235.647625,142.721581 239.2,142.944" id="thinking-Path" stroke="#550090" stroke-width="0.8" stroke-linecap="round" stroke-linejoin="round"></path>
                    <path d="M233.6,148.28 C235.326187,148.385781 237.046759,147.997265 238.56,147.16" id="thinking-Path" stroke="#550090" stroke-width="0.8" fill="#550090" fill-rule="nonzero" stroke-linecap="round" stroke-linejoin="round"></path>
                    <ellipse id="thinking-Oval" stroke="#550090" stroke-width="0.8" fill="#550090" fill-rule="nonzero" stroke-linecap="round" stroke-linejoin="round" transform="translate(235.798923, 145.622834) rotate(-15.170000) translate(-235.798923, -145.622834) " cx="235.798923" cy="145.622834" rx="1.272" ry="2.432"></ellipse>
                    <ellipse id="thinking-Oval" stroke="#550090" stroke-width="0.8" stroke-linecap="round" stroke-linejoin="round" transform="translate(225.123286, 177.260428) rotate(-84.500000) translate(-225.123286, -177.260428) " cx="225.123286" cy="177.260428" rx="3.768" ry="2.64"></ellipse>
                    <path d="M283.416,153.12 C280.597243,153.077111 278.2498,150.945563 277.936,148.144 L276.92,141.232 C276.408,137.88 278.336,135.544 281.592,135.144 C290.392,134.024 294.488,131.28 294.488,126.304 L294.488,126.104 C294.488,121.528 291.04,118.904 285.144,118.904 C280.86887,118.883616 276.713709,120.316624 273.36,122.968 C272.045782,123.972714 270.445905,124.533091 268.792,124.568 C264.883987,124.52052 261.72748,121.364013 261.68,117.456 C261.692771,115.325651 262.662004,113.313758 264.32,111.976 C269.704,107.504 276.512,104.656 285.448,104.656 C300.08,104.656 310.032,112.176 310.032,125.688 L310.032,125.888 C310.032,138.792 301.088,144.072 290.032,146.304 L289.72,148.136 C289.376487,150.922271 287.046392,153.038065 284.24,153.112 L283.416,153.12 Z M283.416,159.824 C285.747561,159.745322 288.010064,160.622554 289.679185,162.252401 C291.348305,163.882249 292.27915,166.123227 292.256,168.456 L292.256,168.664 C292.256,173.543988 288.299988,177.5 283.42,177.5 C278.540012,177.5 274.584,173.543988 274.584,168.664 L274.584,168.456 C274.55865,166.123966 275.487684,163.882921 277.155555,162.25282 C278.823425,160.622718 281.085159,159.74525 283.416,159.824 L283.416,159.824 Z" id="thinking-Shape" stroke="#550090" stroke-width="0.8" fill="#FFFFFF" fill-rule="nonzero" stroke-linecap="round" stroke-linejoin="round"></path>
                </g>
            </g>
        </g>
    </g>
</svg>