<?xml version="1.0" encoding="UTF-8"?>
<svg width="62px" height="29px" viewBox="0 0 62 29" version="1.1" xmlns="http://www.w3.org/2000/svg" xmlns:xlink="http://www.w3.org/1999/xlink">
    <g id="Page-1" stroke="none" stroke-width="1" fill="none" fill-rule="evenodd">
        <g id="William-original" transform="translate(-279.000000, -922.000000)">
            <g id="Group" transform="translate(279.000000, 922.000000)">
                <rect id="Base" fill-opacity="0" fill="#FFFFFF" x="0" y="0" width="62" height="29"></rect>
                <path d="M56.4577992,0.309168883 C57.4487615,-0.104608034 58.540152,-0.103016767 59.5280024,0.313739812 C60.5175827,0.730595535 61.2879144,1.51373922 61.6954391,2.51734914 C62.0716917,3.44254746 62.0992978,4.45658047 61.7784322,5.3941178 L61.6909561,5.62681279 L53.133856,26.4944844 C52.5110237,28.0166474 51.0574876,29 49.4304385,29 C47.8756989,29 46.4768484,28.0992445 45.8130255,26.6899978 L45.7271145,26.4947129 L40.8726931,14.6581857 L36.0193416,26.4948207 C35.4491016,27.8837341 34.1875207,28.8248096 32.7356327,28.9779727 L32.5269797,28.9944564 L32.316062,29 C30.7843756,29 29.3765417,28.1305482 28.7475273,26.8093797 L28.6666415,26.6264597 L26.101045,20.3690489 C25.932409,19.9595356 26.1246344,19.4875349 26.5297519,19.3159879 C26.9025006,19.1581474 27.3265941,19.3090007 27.5246113,19.652477 L27.5728023,19.750841 L30.1385135,26.0085304 C30.4695124,26.8145803 31.3684308,27.3878865 32.3174444,27.3878865 C33.235773,27.3878865 34.0638594,26.8666671 34.4738954,26.0451424 L34.5502315,25.8768988 L40.1391379,12.2472911 C40.2616063,11.9469789 40.552869,11.7502889 40.8746326,11.7502889 C41.1606448,11.7502889 41.4225574,11.9056983 41.5630859,12.1507693 L41.6099042,12.2467454 L47.1990945,25.8770471 C47.5753748,26.7960514 48.450653,27.3878865 49.4318209,27.3878865 C50.3509597,27.3878865 51.1781624,26.8670932 51.5882494,26.0452205 L51.6646089,25.8768967 L60.2218625,5.00885058 C60.470779,4.4028067 60.4717452,3.73619085 60.2243425,3.12958751 C59.9764914,2.52188507 59.5133582,2.05061341 58.9173787,1.8001487 C58.3209631,1.54825422 57.6652007,1.54727679 57.0682382,1.7976379 C56.5293634,2.02363747 56.0990384,2.42664371 55.8381925,2.94583091 L55.7576044,3.12311287 L50.168698,16.7527206 C50.0462296,17.0530327 49.754967,17.2497227 49.4332033,17.2497227 C49.1471912,17.2497227 48.8852786,17.0943134 48.7447501,16.8492424 L48.6979317,16.7532663 L43.1087966,3.1230992 C42.7322417,2.20467218 41.8564298,1.61212518 40.8760151,1.61212518 C39.9576865,1.61212518 39.1296001,2.13334451 38.719564,2.9548693 L38.6432279,3.12311287 L33.0543215,16.7527206 C32.9318532,17.0530327 32.6405905,17.2497227 32.3188268,17.2497227 C32.0328147,17.2497227 31.7709021,17.0943134 31.6303736,16.8492424 L31.5835553,16.7532663 L25.9944919,3.12327427 C25.7454047,2.51681464 25.2809893,2.04685194 24.683792,1.7976379 C24.0868295,1.54727679 23.431067,1.54825422 22.8346514,1.8001487 C22.2371211,2.05251399 21.7736679,2.52345785 21.5278881,3.12909488 C21.3085252,3.6696369 21.2846607,4.25656302 21.4563848,4.80473849 L21.5299498,5.00832158 L24.3075042,11.7350368 C25.840823,15.4730222 25.6568546,19.5050316 23.7987282,22.7930952 C21.9305334,26.1001041 18.5603803,28.3144595 14.5586307,28.8695808 C13.93691,28.9559448 13.3066052,29 12.687061,29 C9.55459226,29 6.58865494,27.9031412 4.33306082,25.9091315 C1.62751818,23.5185932 0.100492264,20.023236 0.0047898046,16.0390331 L1.21858079e-12,15.6390061 L1.21858079e-12,4.06676335 C1.21858079e-12,1.82493786 1.79871888,0.00141350059 4.01098456,0.00141350059 C6.1557661,0.00141350059 7.91254908,1.71697532 8.01705128,3.86423244 L8.02196912,4.06676335 L8.02196912,15.6390061 C8.02196912,17.4428791 8.5725339,18.8718032 9.60431932,19.7854965 C10.5902959,20.6569088 11.9578102,21.0246338 13.4656068,20.8160757 C15.012027,20.6013333 16.2035165,19.8667091 16.8332655,18.7546904 C17.4156627,17.7251479 17.4730044,16.4413204 16.9918479,15.1095608 L16.8953172,14.8593446 L13.1116009,5.62951647 C12.7011296,4.62751571 12.6995627,3.52242424 13.1071588,2.52015284 C13.5150994,1.51703426 14.2858824,0.733033926 15.274522,0.316574502 C16.4553004,-0.181191536 17.8111774,-0.0760304853 18.9041055,0.598643983 C19.2788925,0.830274094 19.3974845,1.32451538 19.1710664,1.7026774 C18.944049,2.08409945 18.4517009,2.20540994 18.075681,1.97390407 C17.4175862,1.56802066 16.5988693,1.50420972 15.8893665,1.80295239 C15.2927082,2.05494938 14.8286615,2.52682284 14.5826032,3.13189857 C14.3632403,3.67244059 14.3393757,4.25936671 14.5113072,4.80804608 L14.5849601,5.01184274 L18.3686422,14.2415876 C19.1398159,16.1225193 19.0897753,18.0120467 18.2179165,19.5547885 C17.3357967,21.1168519 15.7209322,22.131075 13.6849047,22.4140827 C11.7223269,22.686466 9.89917982,22.1858713 8.55756966,20.999714 C7.2300834,19.8250036 6.50230296,18.0843026 6.43600071,15.9616478 L6.43102418,15.6404079 L6.43102418,4.06676335 C6.43102418,2.71331901 5.34508939,1.61212518 4.01236698,1.61212518 C2.73295347,1.61212518 1.68097942,2.62698542 1.59886856,3.90561516 L1.59370978,4.06676335 L1.59370978,15.6390061 C1.59370978,19.324835 2.9393828,22.5395332 5.37830344,24.6976074 C7.34199442,26.4338433 9.9353514,27.3906534 12.6829138,27.3892883 C13.2351594,27.3892883 13.7921855,27.350713 14.3379149,27.2743824 C17.8509607,26.7865496 20.7916087,24.8612185 22.4112798,21.9944565 C23.9660243,19.2436405 24.1639708,15.8741302 22.9654843,12.6948363 L22.8317297,12.3549624 L20.0542688,5.62847491 C19.6422188,4.62626449 19.6406506,3.51947099 20.0496183,2.51749814 C20.4572036,1.51373922 21.2275353,0.730595535 22.2171156,0.313739812 C23.2064366,-0.103006683 24.2977647,-0.104597287 25.2887013,0.309168883 C26.2078977,0.693559648 26.9401906,1.39496155 27.3687454,2.29542213 L27.4621977,2.50670062 L32.3154857,14.3428361 L37.1699705,2.5065928 C37.7402106,1.11767936 39.0017915,0.176603938 40.4536795,0.0234408292 L40.6623325,0.00695705386 L40.8732502,0.00141350059 C42.4279897,0.00141350059 43.8268403,0.902168956 44.4906632,2.31141565 L44.5765741,2.50670062 L49.4299006,14.3428361 L54.2842563,2.50681392 C54.6361126,1.647898 55.2543991,0.950946369 56.0472512,0.508660498 L56.2490479,0.403448214 L56.4577992,0.309168883 Z" id="Monogram" fill="#F495F9" fill-rule="nonzero"></path>
            </g>
        </g>
    </g>
</svg>