<?xml version="1.0" encoding="UTF-8"?>
<svg width="79px" height="36px" viewBox="0 0 79 36" version="1.1" xmlns="http://www.w3.org/2000/svg" xmlns:xlink="http://www.w3.org/1999/xlink">
    <g id="Page-1" stroke="none" stroke-width="1" fill="none" fill-rule="evenodd">
        <g id="William-original" transform="translate(-458.000000, -907.000000)">
            <g id="Group" transform="translate(457.000000, 906.000000)">
                <rect id="Base" fill-opacity="0" fill="#FFFFFF" x="0" y="0" width="80" height="38"></rect>
                <path d="M29.3285961,1.37902649 C30.5487765,0.875549572 31.893651,0.873629536 33.1158526,1.37351763 C34.2556228,1.84039492 35.1621849,2.69402193 35.6899513,3.79081347 L35.7971931,4.02950981 L42.1844701,19.2848376 L48.5725998,4.02943941 C49.284116,2.33188746 50.8665526,1.1884864 52.6818637,1.02262323 L52.9099444,1.0070123 L53.1401738,1.00176782 C55.067565,1.00176782 56.8007,2.10131696 57.6145716,3.82029047 L57.7077774,4.02950981 L64.0935377,19.2848326 L70.4831236,4.02958378 C70.9245331,2.97410904 71.7049511,2.12157956 72.7060299,1.58868654 L72.9238812,1.47943009 L73.1644951,1.37351763 C74.386714,0.873622465 75.7316293,0.87554325 76.9499817,1.37902649 C78.1708677,1.88279457 79.1208202,2.82878419 79.6238986,4.04236124 C80.0936936,5.17393948 80.1233269,6.41476902 79.7130215,7.55925031 L79.6183652,7.80294666 L68.6631319,33.9721088 C67.8944893,35.8121827 66.1020461,37 64.0954659,37 C62.1680748,37 60.4349397,35.9004509 59.6210681,34.1814773 L59.5278624,33.972258 L53.1399989,18.7141784 L46.7524558,33.9723284 C46.0409395,35.6698804 44.4585029,36.8132814 42.6431918,36.9791446 L42.4151112,36.9947555 L42.1848817,37 C40.2857941,37 38.5416638,35.9388918 37.7737107,34.3328042 L37.6862945,34.1374908 L34.401595,26.2901463 C34.2247481,25.8694815 34.4264529,25.3843398 34.8501478,25.2085975 C35.2415569,25.0462469 35.6875421,25.2037471 35.8926891,25.5610348 L35.9387874,25.6544495 L39.2235633,33.5019758 C39.6768788,34.583302 40.8972276,35.3456814 42.1866516,35.3456814 C43.4505991,35.3456814 44.5886827,34.6336098 45.1371003,33.5165217 L45.2187246,33.3368183 L52.3740276,16.244327 C52.5020948,15.9367119 52.8064215,15.7354052 53.1419437,15.7354052 C53.4401856,15.7354052 53.7137793,15.8944624 53.8607371,16.145606 L53.909711,16.2439707 L61.0652032,33.3369152 C61.5756827,34.558167 62.7646862,35.3456814 64.0972358,35.3456814 C65.3622474,35.3456814 66.4991483,34.6341475 67.0476592,33.5166012 L67.1293094,33.336817 L78.0846451,7.16741026 C78.4219935,6.36286623 78.4233045,5.47694952 78.0879949,4.67163239 C77.7519828,3.86462787 77.1228527,3.23754255 76.3140632,2.90459863 C75.5040032,2.569473 74.6119935,2.56817064 73.8011548,2.90127098 C73.0563759,3.20723332 72.4638312,3.75783298 72.1121109,4.46616472 L72.0222246,4.66319152 L64.8669217,21.7556829 C64.7388545,22.0632979 64.4345278,22.2646047 64.0990056,22.2646047 C63.8007637,22.2646047 63.52717,22.1055475 63.3802122,21.8544038 L63.3312383,21.7560392 L56.1757829,4.6631826 C55.664945,3.44273167 54.4753047,2.65432846 53.1437135,2.65432846 C51.879766,2.65432846 50.7416823,3.36640002 50.1932648,4.48348816 L50.1116404,4.66319152 L42.9563375,21.7556829 C42.8282703,22.0632979 42.5239436,22.2646047 42.1884214,22.2646047 C41.8901795,22.2646047 41.6165858,22.1055475 41.469628,21.8544038 L41.4206541,21.7560392 L34.2652465,4.6632969 C33.9275304,3.85787593 33.2966539,3.23252765 32.4862722,2.90127098 C31.6754335,2.56817064 30.7834238,2.569473 29.9733638,2.90459863 C29.1624724,3.24006821 28.5329068,3.86671819 28.1995657,4.67131074 C27.8930686,5.41110912 27.8682617,6.21728125 28.1254905,6.96475709 L28.2026367,7.16706488 L31.7584195,15.6022851 C33.7000702,20.2388578 33.4672921,25.2362278 31.1172824,29.3096123 C28.754853,33.4059227 24.4915943,36.1497714 19.425216,36.8381962 C18.6377678,36.9453432 17.8394474,37 17.0549637,37 C13.0899057,37 9.33708569,35.6405373 6.48402279,33.1699599 C3.0447053,30.1932646 1.10936324,25.8319119 1.00449803,20.8563291 L1,20.4283643 L1,5.91623257 C1,3.20574114 3.21940855,1.00176782 5.94746558,1.00176782 C8.60314789,1.00176782 10.7777372,3.09237112 10.8903502,5.70341668 L10.8949312,5.91623257 L10.8949312,20.4283643 C10.8949312,22.7398973 11.6196553,24.5823412 12.9840614,25.7658608 C14.2890051,26.8955778 16.09478,27.3712148 18.0774982,27.1025776 C20.1124049,26.8257843 21.6897089,25.873183 22.5263957,24.4259837 C23.3074205,23.0735668 23.3776005,21.3900614 22.7251518,19.6552865 L22.6161267,19.3809894 L17.772063,7.80639732 C17.2651468,6.59428654 17.2632129,5.2582639 17.766557,4.0458772 C18.2701322,2.8329339 19.2206989,1.88585204 20.4404255,1.38256238 C21.896167,0.781441339 23.5681522,0.908465933 24.9156667,1.72327701 C25.3080148,1.96079854 25.4324832,2.46891521 25.1948748,2.85764726 C24.957757,3.24788696 24.4442658,3.37181798 24.0521998,3.13537252 C23.158116,2.59522566 22.0461546,2.51033265 21.0817018,2.90811459 C20.2719258,3.24312276 19.6416499,3.87091419 19.3079037,4.6748267 C19.0014067,5.41462508 18.9765997,6.22079721 19.2339801,6.96863385 L19.3111715,7.17104927 L24.1552124,18.745587 C25.1215871,21.0543916 25.0591114,23.3651911 23.9724653,25.2486496 C22.8732185,27.1553703 20.857625,28.3953689 18.3066555,28.7426976 C15.8467043,29.0771242 13.5676918,28.4641644 11.8925324,27.0134133 C10.2235031,25.5666898 9.31118416,23.4135842 9.2380552,20.7767783 L9.23328253,20.4301223 L9.23328253,5.91623257 C9.23328253,4.11809848 7.75964042,2.65432846 5.94923541,2.65432846 C4.20125817,2.65432846 2.76721922,4.01888933 2.67039843,5.73145774 L2.66518829,5.91623257 L2.66518829,20.4283643 C2.66518829,25.1014814 4.40955826,29.1833599 7.57369974,31.9258521 C10.1224436,34.1332598 13.4869271,35.3491732 17.0496542,35.3474394 C17.7653366,35.3474394 18.48715,35.298475 19.1942656,35.2015953 C23.748577,34.5821104 27.5647182,32.1346954 29.6676516,28.4887418 C31.6947675,24.9755496 31.9450767,20.6714506 30.3691037,16.6190859 L30.2160043,16.2399461 L26.6602838,7.80487457 C26.1514672,6.59262769 26.1495318,5.25465053 26.6546389,4.04245852 C27.1577576,2.82878419 28.1077101,1.88279457 29.3285961,1.37902649 Z" id="Monogram" fill="#F495F9" fill-rule="nonzero"></path>
            </g>
        </g>
    </g>
</svg>