<svg width="24" height="24" xmlns="http://www.w3.org/2000/svg" xmlns:xlink="http://www.w3.org/1999/xlink">
  <defs>
    <path d="M.287 6.933a16.371 16.371 0 0123.426 0 1 1 0 01.096 1.29l-.077.093-2.901 3.115a1 1 0 01-1.445.02 10.524 10.524 0 00-14.16-.83l-.194.16 1.358 1.38.09-.072a8.681 8.681 0 0111.378.555l.204.201a1 1 0 01.067 1.327l-.085.093-3.256 3.148a1 1 0 01-1.392-.003A1.99 1.99 0 0012 16.84c-1.116 0-2.028.927-2.028 2.08 0 1.152.912 2.08 2.028 2.08.437 0 .85-.141 1.194-.399l.143-.117a1 1 0 011.338 1.486A3.987 3.987 0 0112 23c-2.229 0-4.028-1.83-4.028-4.08s1.8-4.08 4.028-4.08c.649 0 1.274.156 1.833.445l.176.099 1.866-1.804-.017-.014a6.68 6.68 0 00-8.609.498l-.187.183a1 1 0 01-1.331.085l-.095-.085-2.75-2.797a1 1 0 010-1.402 12.524 12.524 0 0116.931-.911l.233.196 1.544-1.657-.091-.082A14.364 14.364 0 001.97 8.08l-.257.255A1 1 0 01.287 6.933z" id="a-broadband"/>
  </defs>
  <g fill="none" fill-rule="evenodd">
    <path fill-opacity="0" fill="#FFF" d="M0 0h24v24H0z"/>
    <mask id="b-broadband" fill="#fff">
      <use xlink:href="#a-broadband"/>
    </mask>
    <path fill="#F495F9" mask="url(#b-broadband)" d="M0 0h24v24H0z"/>
  </g>
</svg>