<svg data-name="Layer 1" xmlns="http://www.w3.org/2000/svg" width="24" height="24">
  <path d="M20.73 3.81l-1-1a2.69 2.69 0 00-3.73 0l-2.37 2.28a2.65 2.65 0 000 3.74l1.12 1.11a27.77 27.77 0 01-2.26 2.55 27.77 27.77 0 01-2.55 2.26l-1.11-1.12a2.65 2.65 0 00-3.74 0L2.77 16a2.62 2.62 0 000 3.73l1 1a4.29 4.29 0 003 1.26A4.22 4.22 0 009 21.43a33.69 33.69 0 007.11-5.36A33.69 33.69 0 0021.43 9a4.28 4.28 0 00-.7-5.19zM19.7 8a32.17 32.17 0 01-5 6.7 32.17 32.17 0 01-6.7 5 2.28 2.28 0 01-2.74-.38l-1-1a.64.64 0 010-.91l2.24-2.36a.63.63 0 01.5-.19.61.61 0 01.45.19l1.74 1.73a1 1 0 001.3.1 32.3 32.3 0 003.46-3 32.3 32.3 0 003-3.46 1 1 0 00-.1-1.3l-1.8-1.71a.65.65 0 010-.91l2.32-2.32a.67.67 0 01.91 0l1 1A2.28 2.28 0 0119.7 8z" fill="#f495f9"/>
</svg>