<?xml version="1.0" encoding="UTF-8"?>
<svg width="24px" height="24px" viewBox="0 0 24 24" version="1.1" xmlns="http://www.w3.org/2000/svg" xmlns:xlink="http://www.w3.org/1999/xlink">
    <defs>
        <path d="M7.29289322,12.7071068 C6.93240926,12.3466228 6.90467972,11.7793918 7.20970461,11.3871006 L7.29289322,11.2928932 L13.2928932,5.29289322 C13.6834175,4.90236893 14.3165825,4.90236893 14.7071068,5.29289322 C15.0675907,5.65337718 15.0953203,6.22060824 14.7902954,6.61289944 L14.7071068,6.70710678 L9.415,12 L14.7071068,17.2928932 C15.0675907,17.6533772 15.0953203,18.2206082 14.7902954,18.6128994 L14.7071068,18.7071068 C14.3466228,19.0675907 13.7793918,19.0953203 13.3871006,18.7902954 L13.2928932,18.7071068 L7.29289322,12.7071068 Z" id="chevron-left-path-1"></path>
    </defs>
    <g id="Icons-/-24x24-/-Chevron-/-Left" stroke="none" stroke-width="1" fill="none" fill-rule="evenodd">
        <rect id="chevron-left-base" fill-opacity="0" fill="#FFFFFF" x="0" y="0" width="24" height="24"></rect>
        <mask id="chevron-left-mask-2" fill="white">
            <use xlink:href="#chevron-left-path-1"></use>
        </mask>
        <use id="Left" fill="#1E0A46" fill-rule="nonzero" xlink:href="#chevron-left-path-1"></use>
        <rect id="chevron-left-Color" fill="#1E0A46" mask="url(#chevron-left-mask-2)" x="4.35207426e-14" y="-3.55271368e-15" width="24" height="24"></rect>
    </g>
</svg>