<svg width="24" height="24" xmlns="http://www.w3.org/2000/svg">
  <path d="M19.07 17.66C19.47 18.05 19.47 18.68 19.07 19.07C18.93 19.21 19.22 18.93 19.07 19.07C18.68 19.46 18.05 19.46 17.66 19.07C14.97 16.38 7.62 9.03 4.93 6.34C4.54 5.95 4.54 5.32 4.93 4.93C5.07 4.79 4.79 5.07 4.93 4.93C5.32 4.54 5.96 4.54 6.35 4.93C9.03 7.62 16.39 14.97 19.07 17.66Z" class="top"></path>
  <path d="M21 11C21.56 11 22 11.45 22 12C22 12.2 22 11.8 22 12C22 12.56 21.56 13 21 13C17.2 13 6.8 13 3 13C2.45 13 2 12.56 2 12C2 11.8 2 12.2 2 12C2 11.45 2.45 11 3 11C6.8 11 17.2 11 21 11Z" class="middle" style="opacity: 0;"></path>
  <path d="M17.66 4.93C18.05 4.539999999999999 18.68 4.539999999999999 19.07 4.93C19.22 5.07 18.93 4.789999999999999 19.07 4.93C19.47 5.32 19.47 5.949999999999999 19.07 6.34C16.39 9.03 9.03 16.38 6.35 19.07C5.96 19.46 5.32 19.46 4.93 19.07C4.79 18.93 5.07 19.21 4.93 19.07C4.54 18.68 4.54 18.05 4.93 17.66C7.62 14.97 14.97 7.620000000000001 17.66 4.93Z" class="bottom"></path>
</svg>