<?xml version="1.0" encoding="UTF-8"?>
<svg width="24px" height="24px" viewBox="0 0 24 24" version="1.1" xmlns="http://www.w3.org/2000/svg" xmlns:xlink="http://www.w3.org/1999/xlink">
    <title>Icons / 24x24 / Edit</title>
    <defs>
        <path d="M15.2928932,2.29289322 C15.6533772,1.93240926 16.2206082,1.90467972 16.6128994,2.20970461 L16.7071068,2.29289322 L21.7071068,7.29289322 C22.0675907,7.65337718 22.0953203,8.22060824 21.7902954,8.61289944 L21.7071068,8.70710678 L12.7071068,17.7071068 C12.3396908,18.0745227 11.759288,18.0952985 11.3677086,17.7748827 L11.2739801,17.6876737 L8.85298014,15.1316737 C8.47318843,14.730704 8.49035657,14.0977719 8.89132626,13.7179801 C9.26145213,13.3674032 9.82922652,13.3550642 10.2131028,13.6706138 L10.3050199,13.7563263 L12.019,15.565 L19.585,8 L16,4.415 L7.86,12.554 L5.633,18.493 L7.74568534,17.8897885 C8.23878928,17.7489016 8.75125128,18.0039718 8.94342326,18.4663056 L8.98193042,18.5765913 C9.12281726,19.0696952 8.86774711,19.5821572 8.40541335,19.7743292 L8.2951276,19.8128364 L4.27472113,20.9615239 C3.52111347,21.1768404 2.8400655,20.4855739 3.03045753,19.7536241 L3.06367082,19.6488766 L6.06367082,11.6488766 C6.10126321,11.5486302 6.1546258,11.4552916 6.22154168,11.3723035 L6.29289322,11.2928932 L15.2928932,2.29289322 Z" id="edit-path-1"></path>
    </defs>
    <g id="Icons-/-24x24-/-Edit" stroke="none" stroke-width="1" fill="none" fill-rule="evenodd">
        <rect id="edit-base" fill-opacity="0" fill="#FFFFFF" x="0" y="0" width="24" height="24"></rect>
        <mask id="edit-mask-2" fill="white">
            <use xlink:href="#edit-path-1"></use>
        </mask>
        <use id="Edit" fill="#75a7fd" fill-rule="nonzero" xlink:href="#edit-path-1"></use>
        <rect id="edit-Color" fill="#75a7fd" mask="url(#edit-mask-2)" x="0" y="0" width="24" height="24"></rect>
    </g>
</svg>