<svg width="24" height="24" xmlns="http://www.w3.org/2000/svg" xmlns:xlink="http://www.w3.org/1999/xlink">
  <defs>
    <path d="M12 0c6.627 0 12 5.373 12 12s-5.373 12-12 12S0 18.627 0 12 5.373 0 12 0zm0 2C6.477 2 2 6.477 2 12s4.477 10 10 10 10-4.477 10-10S17.523 2 12 2zm0 14a1 1 0 110 2 1 1 0 010-2zm0-10a1 1 0 011 1v6a1 1 0 01-2 0V7a1 1 0 011-1z" id="a-emerg"/>
  </defs>
  <g fill="none" fill-rule="evenodd">
    <path fill-opacity="0" fill="#FFF" d="M0 0h24v24H0z"/>
    <mask id="b-emerg" fill="#fff">
      <use xlink:href="#a-emerg"/>
    </mask>
    <use fill="#1E0A46" xlink:href="#a-emerg"/>
    <path fill="#F495F9" mask="url(#b-emerg)" d="M0 0h24v24H0z"/>
  </g>
</svg>