<svg width="18" height="18" xmlns="http://www.w3.org/2000/svg" xmlns:xlink="http://www.w3.org/1999/xlink">
  <defs>
    <path d="M9.544 0h.245l.635.002c1.197.005 1.549.02 2.28.054.954.042 1.607.197 2.178.418a4.42 4.42 0 011.59 1.035c.46.449.81.99 1.039 1.593.22.568.375 1.224.417 2.179.007.153.013.29.017.42l.01.292c.013.454.017.948.018 1.971v2.248a47.16 47.16 0 01-.052 2.472c-.042.955-.196 1.607-.417 2.18a4.594 4.594 0 01-2.629 2.627c-.568.221-1.224.376-2.178.418-.805.035-1.15.048-2.684.051H7.977c-1.535-.003-1.88-.016-2.684-.051-.954-.042-1.607-.197-2.179-.418a4.42 4.42 0 01-1.59-1.035 4.43 4.43 0 01-1.038-1.593C.265 14.295.11 13.64.068 12.684a44.85 44.85 0 01-.05-2.276l-.002-.635V8.437v-.245l.002-.635c.005-1.197.02-1.55.054-2.28.042-.954.196-1.607.417-2.179a4.422 4.422 0 011.036-1.59c.449-.459.989-.81 1.593-1.038C3.686.25 4.342.095 5.296.053a44.85 44.85 0 012.277-.05L8.208 0h.244zm-.546 4.368a4.615 4.615 0 000 9.228 4.615 4.615 0 000-9.228zm0 1.621a2.993 2.993 0 110 5.987 2.993 2.993 0 010-5.987zm4.797-2.88a1.077 1.077 0 100 2.154 1.077 1.077 0 000-2.154z" id="a-insta"/>
  </defs>
  <g fill="none" fill-rule="evenodd">
    <path d="M-3-3h24v24H-3z"/>
    <g>
      <mask id="b-insta" fill="#fff">
        <use xlink:href="#a-insta"/>
      </mask>
      <use fill="#000" fill-rule="nonzero" xlink:href="#a-insta"/>
      <path fill="#75A7FD" mask="url(#b-insta)" d="M-3-3h24v24H-3z"/>
    </g>
  </g>
</svg>