<svg width="24" height="24" xmlns="http://www.w3.org/2000/svg" xmlns:xlink="http://www.w3.org/1999/xlink">
  <defs>
    <path d="M21.994 11.847c-.074-.958-.834-1.699-1.744-1.699s-1.67.741-1.744 1.699L18.5 12c0 1.287-1.864 1.332-1.993.133l-.013-.286c-.074-.958-.834-1.699-1.744-1.699s-1.67.741-1.744 1.699L13 12v8.685a3.315 3.315 0 01-6.624.188l-.006-.188v-1.331a1 1 0 011.994-.117l.006.117v1.331a1.315 1.315 0 002.623.135l.007-.135V12c0-2.12 1.67-3.852 3.75-3.852 1.04 0 1.977.433 2.655 1.131l.095.103.095-.103a3.69 3.69 0 012.461-1.126l.194-.005c.325 0 .64.042.94.122l.103.03-.003-.01a10.004 10.004 0 00-9.01-6.286L12 2a10.002 10.002 0 00-9.18 6.03l-.114.27.104-.03c.24-.064.49-.103.746-.117l.194-.005c1.04 0 1.977.433 2.655 1.131l.108.118.115-.12a3.84 3.84 0 012.526-1.124l.198-.005a1 1 0 110 2c-.974 0-1.773.752-1.846 1.707L7.5 12c0 1.287-1.864 1.332-1.993.133l-.013-.286c-.074-.958-.834-1.699-1.744-1.699s-1.67.741-1.744 1.699L2 12c0 1.287-1.864 1.332-1.993.133L0 12l.004-.305C.166 5.209 5.474 0 12 0c6.627 0 12 5.373 12 12 0 1.287-1.864 1.332-1.993.133l-.013-.286z" id="a-insu"/>
  </defs>
  <g fill="none" fill-rule="evenodd">
    <path fill-opacity="0" fill="#FFF" d="M0 0h24v24H0z"/>
    <mask id="b-insu" fill="#fff">
      <use xlink:href="#a-insu"/>
    </mask>
    <path fill="#f774af" mask="url(#b-insu)" d="M0 0h24v24H0z"/>
  </g>
</svg>