<svg width="17" height="17" xmlns="http://www.w3.org/2000/svg" xmlns:xlink="http://www.w3.org/1999/xlink">
  <defs>
    <path d="M12.778 5.365c3.565 0 4.222 2.35 4.222 5.4v6.234L13.479 17v-5.663c-.004-1.294-.09-2.868-1.833-2.868-1.832 0-2.113 1.43-2.113 2.91V17h-3.52V5.65h3.38v1.548h.05c.47-.891 1.62-1.832 3.335-1.832zm-8.973.285V17H.28V5.65h3.525zM2.041 0c1.127 0 2.041.914 2.042 2.041 0 1.127-.915 2.061-2.042 2.061C.914 4.102 0 3.168 0 2.042 0 .913.914 0 2.041 0z" id="a-linkedin"/>
  </defs>
  <g fill="none" fill-rule="evenodd">
    <path d="M-4-3h24v24H-4z"/>
    <g>
      <mask id="b-linkedin" fill="#fff">
        <use xlink:href="#a-linkedin"/>
      </mask>
      <use fill="#000" fill-rule="nonzero" xlink:href="#a-linkedin"/>
      <path fill="#75A7FD" mask="url(#b-linkedin)" d="M-4-3h24v24H-4z"/>
    </g>
  </g>
</svg>