<?xml version="1.0" encoding="UTF-8"?>
<svg width="29px" height="19px" viewBox="0 0 29 19" version="1.1" xmlns="http://www.w3.org/2000/svg" xmlns:xlink="http://www.w3.org/1999/xlink">
    <title>9095CCAC-D8C7-4E7B-B390-E2B881A287FB</title>
    <g id="maestro-Desktop" stroke="none" stroke-width="1" fill="none" fill-rule="evenodd">
        <g id="maestro-Hosted-Payment---Payment-details-page---Step-2" transform="translate(-771.000000, -559.000000)" fill-rule="nonzero">
            <g id="maestro-Group-4" transform="translate(522.000000, 515.000000)">
                <g id="maestro-Group-3" transform="translate(171.000000, 44.000000)">
                    <g id="maestro-mc_symbol" transform="translate(78.034483, 0.000000)">
                        <g id="maestro-Group" opacity="0" fill="#FFFFFF">
                            <rect id="maestro-Rectangle" x="0" y="0" width="28.9655172" height="19"></rect>
                        </g>
                        <rect id="maestro-Rectangle" fill="#7673C0" x="10.6329114" y="3.28846154" width="7.69969446" height="12.4230769"></rect>
                        <path d="M11.2699499,9.31621663 C11.2680324,6.90606105 12.3851539,4.62887882 14.2994326,3.14080586 C11.0473744,0.60955338 6.37728844,0.978252193 3.5711856,3.98779068 C0.765082758,6.99732917 0.765082758,11.6372862 3.5711856,14.6468247 C6.37728844,17.6563632 11.0473744,18.025062 14.2994326,15.4938095 C12.3845448,14.005264 11.267355,11.727138 11.2699499,9.31621663 Z" id="maestro-Path" fill="#EB001B"></path>
                        <path d="M26.5694864,14.2912036 L26.5694864,13.9543162 L26.6930617,13.9543162 L26.6930617,13.8846154 L26.3989524,13.8846154 L26.3989524,13.9543162 L26.5151132,13.9543162 L26.5151132,14.2912036 L26.5694864,14.2912036 Z M27.1404045,14.2912036 L27.1404045,13.8846154 L27.0514302,13.8846154 L26.9476269,14.1750356 L26.8438237,13.8846154 L26.7548494,13.8846154 L26.7548494,14.2912036 L26.8191086,14.2912036 L26.8191086,13.9833582 L26.9154974,14.2476406 L26.982228,14.2476406 L27.0786168,13.9833582 L27.0786168,14.2912036 L27.1404045,14.2912036 Z" id="maestro-Shape" fill="#00A1DF"></path>
                        <path d="M27.1322567,9.31839864 C27.1322567,12.3257776 25.3983209,15.069124 22.6670409,16.3833281 C19.9357609,17.6975323 16.6865779,17.3518683 14.2994326,15.4931411 C16.212702,14.003966 17.3298061,11.7273329 17.3298061,9.31730769 C17.3298061,6.90728248 16.212702,4.63064941 14.2994326,3.1414743 C16.6865779,1.28274704 19.9357609,0.937083083 22.6670409,2.25128724 C25.3983209,3.56549139 27.1322567,6.30883781 27.1322567,9.31621675 L27.1322567,9.31839864 Z" id="maestro-Path" fill="#00A1DF"></path>
                    </g>
                </g>
            </g>
        </g>
    </g>
</svg>