<svg width="24px" height="24px" viewBox="0 0 24 24" xmlns="http://www.w3.org/2000/svg" xmlns:xlink="http://www.w3.org/1999/xlink"><defs><path d="M11.3356362,3.25259068 C11.9524982,2.70426884 12.9120591,3.09929101 12.9943331,3.88980298 L13,4 L13,10 C13,10.5128358 13.3860402,10.9355072 13.8833789,10.9932723 L14,11 L21,11 C21.5522847,11 22,11.4477153 22,12 C22,12.5128358 21.6139598,12.9355072 21.1166211,12.9932723 L21,13 L14,13 C12.4023191,13 11.0963391,11.75108 11.0050927,10.1762728 L11,10 L11,6.226 L4.505,12 L12.6643638,19.2525907 C13.0453941,19.5912842 13.1063847,20.1559081 12.8249223,20.5654341 L12.7474093,20.6643638 C12.4087158,21.0453941 11.8440919,21.1063847 11.4345659,20.8249223 L11.3356362,20.7474093 L2.33563616,12.7474093 C1.92008663,12.378032 1.89040452,11.7487346 2.24658983,11.3422259 L2.33563616,11.2525907 L11.3356362,3.25259068 Z" id="path-prev"></path></defs><g id="Icons-/-24x24-/-Previous" stroke="none" stroke-width="1" fill="none" fill-rule="evenodd"><rect id="base" fill-opacity="0" fill="#FFFFFF" x="0" y="0" width="24" height="24"></rect><mask id="mask-prev" fill="white"><use xlink:href="#path-prev"></use></mask><use id="Previous" fill="#75A7FD" fill-rule="nonzero" xlink:href="#path-prev"></use><rect id="Color" fill="#75A7FD" mask="url(#mask-prev)" x="0" y="0" width="24" height="24"></rect></g></svg>