<svg width="24" height="24" xmlns="http://www.w3.org/2000/svg" xmlns:xlink="http://www.w3.org/1999/xlink">
  <defs>
    <path d="M22 5.522a8.262 8.262 0 01-2.357.641 4.09 4.09 0 001.805-2.252 8.267 8.267 0 01-2.606.988 4.113 4.113 0 00-2.995-1.286c-2.266 0-4.103 1.823-4.103 4.072 0 .318.036.63.106.928a11.68 11.68 0 01-8.457-4.255 4.032 4.032 0 00-.556 2.047c0 1.412.724 2.66 1.825 3.39a4.106 4.106 0 01-1.858-.51v.051c0 1.973 1.414 3.619 3.291 3.993a4.14 4.14 0 01-1.853.07 4.103 4.103 0 003.833 2.827 8.273 8.273 0 01-5.096 1.743c-.332 0-.658-.019-.979-.056a11.682 11.682 0 006.29 1.829c7.548 0 11.674-6.205 11.674-11.585 0-.177-.003-.353-.011-.527A8.287 8.287 0 0022 5.522" id="a-twitter"/>
  </defs>
  <g fill="none" fill-rule="evenodd">
    <path fill-opacity="0" fill="#FFF" d="M0 0h24v24H0z"/>
    <mask id="b-twitter" fill="#fff">
      <use xlink:href="#a-twitter"/>
    </mask>
    <use fill-opacity="0" fill="#1E0A46" xlink:href="#a-twitter"/>
    <path fill="#1E0A46" mask="url(#b-twitter)" d="M0 0h24v24H0z"/>
  </g>
</svg>