<?xml version="1.0" encoding="UTF-8"?>
<svg width="35px" height="19px" viewBox="0 0 35 13" version="1.1" xmlns="http://www.w3.org/2000/svg" xmlns:xlink="http://www.w3.org/1999/xlink">
    <title>Visa</title>
    <g id="visa-Page-1" stroke="none" stroke-width="1" fill="none" fill-rule="evenodd">
        <g id="visa-Hosted-Payment---Payment-details-page---Step-2" transform="translate(-728.000000, -456.000000)" fill="#1A1F71">
            <g id="visa-Group-4" transform="translate(522.000000, 409.000000)">
                <g id="visa-Group-3" transform="translate(206.000000, 44.000000)">
                    <g id="visa-visa" transform="translate(0.000000, 3.958333)">
                        <path d="M17.8930661,3.54328598 C17.8733454,5.08716162 19.2800879,5.94872197 20.339729,6.46097327 C21.4285187,6.98661002 21.7942164,7.32364907 21.7900647,7.79359887 C21.7817612,8.5129816 20.9214894,8.83037147 20.1164009,8.84272728 C18.7117342,8.86434995 17.895142,8.46656151 17.2458296,8.16564605 L16.7399247,10.5143654 C17.3913129,10.8122777 18.5974753,11.0720072 19.8483552,11.0833333 C22.7843161,11.0833333 24.7051805,9.64559753 24.7156463,7.41640345 C24.7270635,4.58735194 20.7709029,4.4306734 20.7978891,3.16609055 C20.8072305,2.78271722 21.176042,2.37351681 21.9843307,2.26943627 C22.3842802,2.21692408 23.4886388,2.17668189 24.7405566,2.74865294 L25.2319305,0.476213517 C24.5587457,0.232958504 23.6932842,0 22.6159983,0 C19.8525069,0 17.9087216,1.45729917 17.8930661,3.54328598 M29.9538247,0.19580527 C29.4177333,0.19580527 28.9658009,0.506073392 28.7642693,0.982201104 L24.5701629,10.9163583 L27.504048,10.9163583 L28.0878842,9.31576604 L31.6731575,9.31576604 L32.011869,10.9163583 L34.5977011,10.9163583 L32.3411526,0.19580527 L29.9538247,0.19580527 Z M30.3641534,3.09186989 L31.2108457,7.11746148 L28.8920213,7.11746148 L30.3641534,3.09186989 Z M14.3359034,0.19580527 L12.0233066,10.9163583 L14.8189739,10.9163583 L17.1305328,0.19580527 L14.3359034,0.19580527 Z M10.2000078,0.19580527 L7.28999511,7.49259761 L6.11289483,1.28826482 C5.97476351,0.59573882 5.42933075,0.19580527 4.82361149,0.19580527 L0.0665140805,0.19580527 L0,0.507103043 C0.976606609,0.717323424 2.08615489,1.05642177 2.75830172,1.41920209 C3.16966839,1.64074863 3.28712759,1.83449459 3.42214511,2.361161 L5.65162098,10.9163583 L8.60635115,10.9163583 L13.1359687,0.19580527 L10.2000078,0.19580527 Z" id="visa-Shape"></path>
                    </g>
                </g>
            </g>
        </g>
    </g>
</svg>