<?xml version="1.0" encoding="UTF-8"?>
<svg width="24px" height="24px" viewBox="0 0 24 24" version="1.1" xmlns="http://www.w3.org/2000/svg" xmlns:xlink="http://www.w3.org/1999/xlink">
    <defs>
        <path d="M12,0 C18.627417,0 24,5.372583 24,12 C24,18.627417 18.627417,24 12,24 C5.372583,24 0,18.627417 0,12 C0,5.372583 5.372583,0 12,0 Z M12,2 C6.4771525,2 2,6.4771525 2,12 C2,17.5228475 6.4771525,22 12,22 C17.5228475,22 22,17.5228475 22,12 C22,6.4771525 17.5228475,2 12,2 Z M12,16 C12.5522847,16 13,16.4477153 13,17 C13,17.5522847 12.5522847,18 12,18 C11.4477153,18 11,17.5522847 11,17 C11,16.4477153 11.4477153,16 12,16 Z M12,6 C12.5522847,6 13,6.44771525 13,7 L13,13 C13,13.5522847 12.5522847,14 12,14 C11.4477153,14 11,13.5522847 11,13 L11,7 C11,6.44771525 11.4477153,6 12,6 Z" id="warning-outlined-path-1"></path>
    </defs>
    <g id="warning-outlined-Icons-/--24x24-/-Messaging-/-Warning-/-Outlined" stroke="none" stroke-width="1" fill="none" fill-rule="evenodd">
        <rect id="warning-outlined-base" fill-opacity="0" fill="#FFFFFF" x="0" y="0" width="24" height="24"></rect>
        <mask id="warning-outlined-mask-2" fill="white">
            <use xlink:href="#warning-outlined-path-1"></use>
        </mask>
        <use id="warning-outlined-Mask" fill="#ce2261" xlink:href="#warning-outlined-path-1"></use>
        <rect id="warning-outlined-Color" fill="#ce2261" mask="url(#warning-outlined-mask-2)" x="0" y="0" width="24" height="24"></rect>
    </g>
</svg>