<svg width="24" height="24" xmlns="http://www.w3.org/2000/svg">
  <path d="M9.43 15.667L9.428 9l6.857 3.345-6.857 3.322zm14.33-8.072s-.235-1.633-.954-2.352c-.913-.944-1.936-.948-2.405-1.003C17.043 4 12.005 4 12.005 4h-.01s-5.038 0-8.396.24c-.47.055-1.492.06-2.406 1.003C.474 5.963.24 7.595.24 7.595S0 9.513 0 11.43v1.798c0 1.918.24 3.835.24 3.835s.234 1.633.953 2.352c.914.944 2.113.915 2.647 1.013 1.92.182 8.16.239 8.16.239s5.043-.008 8.401-.248c.47-.055 1.492-.06 2.405-1.004.72-.719.954-2.352.954-2.352s.24-1.917.24-3.835V11.43c0-1.917-.24-3.835-.24-3.835z" fill="#75A7FD" fill-rule="evenodd"/>
</svg>