<?xml version="1.0" encoding="UTF-8"?>
<svg width="156px" height="156px" viewBox="0 0 156 156" version="1.1" xmlns="http://www.w3.org/2000/svg" xmlns:xlink="http://www.w3.org/1999/xlink">
    <g id="1-Desktop" stroke="none" stroke-width="1" fill="none" fill-rule="evenodd">
        <g id="1-Hosted-Payment---Payment-Success-Page" transform="translate(-171.000000, -870.000000)">
            <rect fill="#F7F2F9" x="0" y="0" width="1366" height="2539"></rect>
            <rect id="1-body-bg" style="mix-blend-mode: luminosity;" x="1" y="224" width="1365" height="824"></rect>
            <rect id="1-Rectangle" fill="#F5F0F8" x="0" y="573" width="1366" height="772"></rect>
            <g id="1-Services-/-Illustration-/-1" transform="translate(171.000000, 870.000000)">
                <path d="M78,155.22 C120.647428,155.22 155.22,120.647428 155.22,78 C155.22,35.3525716 120.647428,0.78 78,0.78 C35.3525716,0.78 0.78,35.3525716 0.78,78 C0.78,120.647428 35.3525716,155.22 78,155.22 Z" id="1-line" stroke="#F495F9" stroke-width="2" stroke-linecap="round" stroke-linejoin="round" stroke-dasharray="350"></path>
                <circle id="1-base" fill="#550091" opacity="0.05" cx="78" cy="78" r="66.3"></circle>
                <path d="M85.5158535,97.0838969 L85.5158535,53.7938969 C85.5158535,51.3680969 83.9090535,49.2386969 81.5768535,48.5678969 C79.2446535,47.9048969 76.7564535,48.8642969 75.4772535,50.9234969 C75.4460535,50.9702969 72.3104535,55.8296969 66.1016535,59.0666969 C63.4418535,60.4472969 62.4122535,63.7310969 63.7928535,66.3830969 C64.7600535,68.2472969 66.6554535,69.3080969 68.6132535,69.3080969 C69.4556535,69.3080969 70.3136535,69.1130969 71.1170535,68.6918969 C72.3884535,68.0288969 73.5662535,67.3190969 74.6582535,66.5858969 L74.6582535,101.451897 C74.6582535,104.447097 77.0840535,106.880697 80.0870535,106.880697 C83.0822535,106.880697 85.5158535,104.447097 85.5158535,101.451897 L85.5158535,97.0838969 Z" id="1-Path" stroke="#F495F9" stroke-width="2"></path>
            </g>
        </g>
    </g>
</svg>