<?xml version="1.0" encoding="UTF-8"?>
<svg width="146px" height="152px" viewBox="0 0 146 152" version="1.1" xmlns="http://www.w3.org/2000/svg" xmlns:xlink="http://www.w3.org/1999/xlink">
    <g id="two-Desktop" stroke="none" stroke-width="1" fill="none" fill-rule="evenodd">
        <g id="two-Hosted-Payment---Payment-Success-Page" transform="translate(-562.000000, -876.000000)">
            <g id="two-Services-/-Illustration-/-1" transform="translate(551.000000, 870.000000)">
                <ellipse id="two-base" fill="#550091" opacity="0.05" cx="78" cy="79.285" rx="66.3" ry="66.725"></ellipse>
                <path d="M78,156.215 C120.647428,156.215 155.22,121.420809 155.22,78.5 C155.22,35.5791907 120.647428,0.785 78,0.785 C35.3525716,0.785 0.78,35.5791907 0.78,78.5 C0.78,121.420809 35.3525716,156.215 78,156.215 Z" id="two-line" stroke="#F495F9" stroke-width="2" stroke-linecap="round" stroke-linejoin="round" stroke-dasharray="210,320"></path>
                <path d="M93.584731,107.545 C96.587731,107.545 99.013531,105.0958 99.013531,102.0814 C99.013531,99.05915 96.587731,96.6178 93.584731,96.6178 L76.479331,96.6178 L90.332131,83.0059 C90.339931,82.99805 90.347731,82.9902 90.355531,82.98235 C90.363331,82.9745 90.371131,82.96665 90.378931,82.9588 C93.779731,79.5362 96.018331,75.8938 97.016731,72.13365 C97.983931,68.49125 97.757731,64.7782 96.361531,61.39485 C94.902931,57.84665 92.258731,54.8087 88.725331,52.6107 C85.449331,50.57755 81.619531,49.455 77.937931,49.455 C70.184731,49.455 62.603131,54.11005 59.069731,61.0416 C57.704731,63.7263 58.757731,67.01545 61.425331,68.39705 C62.220931,68.80525 63.063331,69.0015 63.897931,69.0015 C65.871331,69.0015 67.774531,67.91035 68.733931,66.02635 C70.426531,62.7058 74.209531,60.3822 77.937931,60.3822 C81.447931,60.3822 85.129531,62.66655 86.330731,65.5789 C87.773731,69.08 85.168531,72.74595 82.719331,75.2187 L59.358331,98.1721 C57.774931,99.71855 57.291331,102.0814 58.118131,104.1381 C58.952731,106.1948 60.941731,107.545 63.149131,107.545 L89.224531,107.545 L93.584731,107.545 Z" id="two-Path" stroke="#F495F9" stroke-width="2"></path>
            </g>
        </g>
    </g>
</svg>