<?xml version="1.0" encoding="UTF-8"?>
<svg width="156px" height="156px" viewBox="0 0 156 156" version="1.1" xmlns="http://www.w3.org/2000/svg" xmlns:xlink="http://www.w3.org/1999/xlink">
    <title>BF7EBDAA-EBB2-4AF5-8FDB-0CB50B231820</title>
    <g id="2-Desktop" stroke="none" stroke-width="1" fill="none" fill-rule="evenodd">
        <g id="2-Hosted-Payment---Payment-Success-Page" transform="translate(-927.000000, -870.000000)">
            <rect fill="#F7F2F9" x="0" y="0" width="1366" height="2539"></rect>
            <rect id="2-body-bg" style="mix-blend-mode: luminosity;" x="1" y="224" width="1365" height="824"></rect>
            <rect id="2-Rectangle" fill="#F5F0F8" x="0" y="573" width="1366" height="772"></rect>
            <g id="2-Services-/-Illustration-/-1" transform="translate(927.000000, 870.000000)">
                <circle id="2-base" fill="#550091" opacity="0.05" cx="78" cy="78" r="66.3"></circle>
                <path d="M137.15575,127.637857 C164.568988,94.9680316 160.307683,46.2610845 127.637857,18.847846 C94.9680316,-8.56539257 46.2610845,-4.30408687 18.847846,28.3657387 C-8.56539257,61.0355642 -4.30408687,109.742511 28.3657387,137.15575 C61.0355642,164.568988 109.742511,160.307683 137.15575,127.637857 Z" id="2-;ine" stroke="#F495F9" stroke-width="2" stroke-linecap="round" stroke-linejoin="round" stroke-dasharray="314"></path>
                <path d="M62.7221928,103.8024 C67.0355928,106.2126 71.6687928,107.2422 77.7761928,107.2422 C77.9711928,107.2422 78.1739928,107.2266 78.3611928,107.211 C90.1781928,106.5636 98.7191928,99.0522 98.7191928,89.2476 C98.7191928,84.4896 96.7145928,80.2776 93.0251928,77.1654 C96.3011928,74.1858 98.0795928,70.2468 98.0795928,65.832 C98.0795928,56.3082 89.8037928,49.0152 78.3611928,48.3912 C78.1661928,48.3678 77.9711928,48.36 77.7761928,48.36 C70.1945928,48.36 64.9607928,49.998 59.7113928,54.015 C57.3245928,55.8324 56.8721928,59.241 58.6973928,61.62 C59.7659928,63.0162 61.3805928,63.7494 63.0107928,63.7494 C64.1651928,63.7494 65.3195928,63.3906 66.3023928,62.634 C69.5861928,60.1224 72.4409928,59.2488 77.5031928,59.2176 C77.5187928,59.2176 77.5265928,59.2176 77.5421928,59.2254 C82.3547928,59.4282 87.2219928,61.7604 87.2219928,65.832 C87.2219928,70.2234 81.0365928,71.8614 77.1365928,71.8614 C77.1365928,71.8614 77.1365928,71.8614 77.1287928,71.8614 C77.1209928,71.8614 77.1131928,71.8614 77.1053928,71.8614 C76.9961928,71.8614 76.8869928,71.8692 76.7777928,71.877 C76.6607928,71.8692 76.5515928,71.8614 76.4423928,71.8614 L73.7591928,71.8614 C70.7639928,71.8614 68.3303928,74.295 68.3303928,77.2902 C68.3303928,80.2932 70.7639928,82.719 73.7591928,82.719 L76.4423928,82.719 C76.5515928,82.719 76.6607928,82.719 76.7777928,82.7112 C76.8869928,82.719 76.9961928,82.719 77.1053928,82.719 C80.0771928,82.719 83.0801928,83.499 85.1237928,84.8016 C87.5807928,86.3694 87.8615928,88.0854 87.8615928,89.2476 C87.8615928,93.639 82.6667928,96.1584 77.5421928,96.3768 C77.5265928,96.3768 77.5109928,96.3768 77.4953928,96.3846 C72.1523928,96.3534 69.1415928,95.4252 65.6627928,92.7654 C63.2837928,90.948 59.8751928,91.4004 58.0577928,93.7794 C56.2325928,96.1662 56.6927928,99.5748 59.0717928,101.3922 C59.0795928,101.4 59.0795928,101.4 59.0873928,101.4078 L62.7221928,103.8024 Z" id="2-Path" stroke="#F495F9" stroke-width="2"></path>
            </g>
        </g>
    </g>
</svg>