<svg width="48" height="48" xmlns="http://www.w3.org/2000/svg" xmlns:xlink="http://www.w3.org/1999/xlink">
  <defs>
    <path d="M24 25c9.389 0 17 7.611 17 17a1 1 0 11-2 0c0-8.284-6.716-15-15-15-8.284 0-15 6.716-15 15a1 1 0 11-2 0c0-9.389 7.611-17 17-17zm-.001-20a9 9 0 010 18 1 1 0 010-2 7 7 0 005.116-11.77 7 7 0 00-10.246 9.54 1 1 0 01-.05 1.41 1 1 0 01-1.41-.05A9 9 0 0123.999 5z" id="a-accounts"/>
  </defs>
  <g fill="none" fill-rule="evenodd">
    <path fill="none" d="M0 0h48v48H0z"/>
    <mask id="b-accounts" fill="#fff">
      <use xlink:href="#a-accounts"/>
    </mask>
    <path fill="#F495F9" mask="url(#b-accounts)" d="M0 0h48v48H0z"/>
  </g>
</svg>