<svg width="48" height="48" xmlns="http://www.w3.org/2000/svg" xmlns:xlink="http://www.w3.org/1999/xlink">
  <defs>
    <path d="M24 40.439c-3.436 0-6.23-2.808-6.23-6.259 0-3.451 2.794-6.259 6.23-6.259 1.282 0 2.511.389 3.546 1.111l4.516-4.541A12.299 12.299 0 0024 21.507a12.32 12.32 0 00-8.791 3.662c-.375.378-1.043.378-1.418 0l-4.75-4.776a1 1 0 010-1.41c3.996-4.017 9.308-6.23 14.959-6.23a20.936 20.936 0 0114.233 5.534l3.344-3.361A25.608 25.608 0 0024 8c-6.909 0-13.405 2.705-18.291 7.618a1 1 0 11-1.418-1.41C9.555 8.915 16.555 6 24 6s14.445 2.915 19.709 8.208a1 1 0 010 1.41l-4.75 4.775c-.375.378-1.043.378-1.418 0-3.617-3.637-8.426-5.64-13.541-5.64a18.955 18.955 0 00-12.822 4.953l3.346 3.364A14.283 14.283 0 0124 19.507c3.857 0 7.482 1.51 10.209 4.252a1 1 0 010 1.41l-5.884 5.916a1.001 1.001 0 01-1.403.016A4.193 4.193 0 0024 29.921c-2.333 0-4.23 1.911-4.23 4.259 0 2.348 1.897 4.259 4.23 4.259a4.211 4.211 0 002.8-1.066 1 1 0 111.329 1.494A6.204 6.204 0 0124 40.439" id="a-broadband"/>
  </defs>
  <g fill="none" fill-rule="evenodd">
    <path fill-opacity="0" fill="#FFF" d="M0 0h48v48H0z"/>
    <mask id="b-broadband" fill="#fff">
      <use xlink:href="#a-broadband"/>
    </mask>
    <path fill="#F495F9" mask="url(#b-broadband)" d="M0 0h48v48H0z"/>
  </g>
</svg>