<svg xmlns="http://www.w3.org/2000/svg" width="48" height="48">
  <path d="M41.46 7.621l-2-2a5.381 5.381 0 00-7.46 0l-4.738 4.559a5.295 5.295 0 000 7.48L29.5 19.88a55.491 55.491 0 01-4.52 5.101 55.491 55.491 0 01-5.101 4.52l-2.219-2.238a5.295 5.295 0 00-7.48 0L5.54 32a5.246 5.246 0 000 7.46l2 2a8.59 8.59 0 006 2.52A8.422 8.422 0 0018 42.86a67.266 67.266 0 0014.219-10.72A67.473 67.473 0 0042.859 18a8.56 8.56 0 00-1.398-10.379zM39.399 16a64.22 64.22 0 01-10 13.398 64.22 64.22 0 01-13.398 10 4.562 4.562 0 01-5.48-.757l-2-2a1.29 1.29 0 01-.38-.91c0-.344.137-.672.38-.91L13 30.1c.262-.269.625-.41 1-.382.34-.004.668.133.898.383l3.48 3.457c.7.703 1.806.785 2.602.203A64.366 64.366 0 0033.898 20.84c.586-.797.5-1.902-.199-2.602l-3.597-3.418a1.3 1.3 0 010-1.82l4.636-4.64a1.346 1.346 0 011.82 0l2 2a4.557 4.557 0 01.84 5.64zm0 0" fill="#f495f9"/>
</svg>