<svg width="48" height="48" xmlns="http://www.w3.org/2000/svg" xmlns:xlink="http://www.w3.org/1999/xlink">
  <defs>
    <path d="M20.5 44a4.505 4.505 0 01-4.5-4.5v-3.148a1 1 0 112 0V39.5c0 1.378 1.121 2.5 2.5 2.5s2.5-1.122 2.5-2.5V24c0-3.268 2.579-5.926 5.75-5.926 1.971 0 3.714 1.028 4.75 2.59 1.036-1.562 2.779-2.59 4.75-2.59 1.113 0 2.153.328 3.034.894C39.103 11.484 32.18 6 24 6S8.897 11.484 6.716 18.968a5.593 5.593 0 013.034-.894c1.98 0 3.73 1.037 4.765 2.613a5.923 5.923 0 014.911-2.613 1 1 0 110 2A3.93 3.93 0 0015.5 24a1 1 0 11-2 0c0-2.165-1.683-3.926-3.75-3.926S6 21.835 6 24a1 1 0 11-2 0C4 12.972 12.972 4 24 4s20 8.972 20 20a1 1 0 11-2 0c0-2.165-1.683-3.926-3.75-3.926S34.5 21.835 34.5 24a1 1 0 11-2 0c0-2.165-1.683-3.926-3.75-3.926S25 21.835 25 24v15.5c0 2.481-2.019 4.5-4.5 4.5" id="a-insurance"/>
  </defs>
  <g fill="none" fill-rule="evenodd">
    <path fill-opacity="0" fill="#FFF" d="M0 0h48v48H0z"/>
    <mask id="b-insurance" fill="#fff">
      <use xlink:href="#a-insurance"/>
    </mask>
    <path fill="#f774af" mask="url(#b-insurance)" d="M0 0h48v48H0z"/>
  </g>
</svg>