<?xml version="1.0" encoding="UTF-8"?>
<svg width="48px" height="48px" viewBox="0 0 48 48" version="1.1" xmlns="http://www.w3.org/2000/svg" xmlns:xlink="http://www.w3.org/1999/xlink">
    <title>8592461D-CE0B-4A7C-982A-1D89D14DC98D</title>
    <defs>
        <path d="M24.2061503,3.03975111 C27.0587859,3.03975111 29.7445204,4.15253015 31.7618303,6.16984007 C33.6980261,8.10528338 34.8010139,10.6589864 34.886155,13.3836437 L34.891483,13.7250839 L34.8907511,20.5877511 L35.3901496,20.5885501 C37.5232118,20.5885501 39.2641253,22.2651014 39.3676765,24.3721873 L39.3725494,24.5709499 L39.3725494,40.2289045 C39.3725494,42.361682 37.6962742,44.1028629 35.5889373,44.2064306 L35.3901496,44.2113043 L13.0221509,44.2113043 C10.8895759,44.2113043 9.14820477,42.5345567 9.04462541,40.4276493 L9.03975111,40.2289045 L9.03975111,24.5709499 C9.03975111,22.4383749 10.7164988,20.6970037 12.8234062,20.5934244 L13.0221509,20.5885501 L13.5207511,20.5877511 L13.5208175,13.7250839 C13.5208175,10.8732299 14.6340554,8.18618207 16.6509065,6.17011494 C18.667427,4.15281034 21.3538378,3.03975111 24.2061503,3.03975111 Z M24.2061503,5.03975111 C21.8844068,5.03975111 19.7068213,5.94198902 18.06512,7.58432848 C16.4978784,9.15096097 15.6043844,11.2068691 15.5263958,13.4094662 L15.5208175,13.7250839 L15.5207511,20.5877511 L28.95975,20.5885501 C29.5120348,20.5885501 29.95975,21.0362653 29.95975,21.5885501 C29.95975,22.1013859 29.5737099,22.5240572 29.0763712,22.5818223 L28.95975,22.5885501 L13.0221509,22.5885501 C11.9772592,22.5885501 11.1208832,23.3974309 11.0451898,24.423026 L11.0397511,24.5709499 L11.0397511,40.2289045 C11.0397511,41.2737962 11.848632,42.1301722 12.874227,42.2058657 L13.0221509,42.2113043 L35.3901496,42.2113043 C36.4354505,42.2113043 37.2914545,41.4026809 37.3671133,40.3768635 L37.3725494,40.2289045 L37.3725494,24.5709499 C37.3725494,23.5257885 36.5640591,22.6696577 35.5381267,22.593987 L35.3901496,22.5885501 L33.9227511,22.5877511 L33.8993052,22.5956612 L33.8637511,22.5867511 L33.7752175,22.5818223 C33.6217603,22.5639985 33.4788996,22.511433 33.3547063,22.4321969 C33.296032,22.4022408 33.2494214,22.3652408 33.2081333,22.3168748 C33.0140067,22.1361941 32.8926938,21.878061 32.8918431,21.5915835 L32.891483,21.5885501 L32.891483,13.7250839 C32.891483,11.4033238 31.9894419,9.22524074 30.3477542,7.58419105 C28.7053293,5.94176614 26.5282817,5.03975111 24.2061503,5.03975111 Z M24.206648,31.1453139 C24.9710924,31.1453139 25.5904702,31.7654028 25.5904702,32.5298472 C25.5904702,33.2942916 24.9710924,33.9136693 24.206648,33.9136693 C23.4422036,33.9136693 22.8221148,33.2942916 22.8221148,32.5298472 C22.8221148,31.7654028 23.4422036,31.1453139 24.206648,31.1453139 Z" id="path-1"></path>
    </defs>
    <g id="Page-1" stroke="none" stroke-width="1" fill="none" fill-rule="evenodd">
        <g id="Hosted-Payment---Payment-details-page---step-1" transform="translate(-171.000000, -569.000000)">
            <g id="Group-7" transform="translate(171.000000, 569.000000)">
                <mask id="mask-2" fill="white">
                    <use xlink:href="#path-1"></use>
                </mask>
                <use id="Combined-Shape" fill="#F394F8" fill-rule="nonzero" xlink:href="#path-1"></use>
                <rect id="Rectangle" fill="#75A7FD" mask="url(#mask-2)" x="0" y="0" width="48" height="48"></rect>
            </g>
        </g>
    </g>
</svg>