<svg width="48" height="48" xmlns="http://www.w3.org/2000/svg">
  <switch>
    <g>
      <path fill="#f495f9" d="M43 36H5c-.6 0-1 .4-1 1s.4 1 1 1h38c.6 0 1-.4 1-1s-.5-1-1-1zm-26.9-7h-.5c-.4-1.8-2-3.1-3.9-3.1S8.3 27.3 7.8 29H5c-.6 0-1 .4-1 1s.4 1 1 1h2.8c.5 1.7 2 3 3.9 3s3.4-1.3 3.9-3h.5c.8 0 1.5-.3 2.1-.9.5-.6.8-1.3.8-2.1l-.5-15.4c-.1-1.5-1.2-2.6-2.7-2.6H5c-.6 0-1 .4-1 1s.4 1 1 1h10.8c.4 0 .7.3.7.7l.5 15.4c0 .2-.1.5-.2.6-.2.2-.4.3-.7.3zm-4.4 3.1c-1.1 0-2.1-.9-2.1-2.1s.9-2.1 2.1-2.1 2.1.9 2.1 2.1-.9 2.1-2.1 2.1zm32.9-8.8L33.7 12.4c-.4-.4-1-.4-1.4 0L21.4 23.3c-.3.3-.4.7-.2 1.1.2.4.5.6.9.6H24v8c0 .6.4 1 1 1h15.9c.6 0 1-.4 1-1v-8h1.9c.4 0 .8-.2.9-.6.2-.4.2-.8-.1-1.1zm-3.7-.3c-.6 0-1 .4-1 1v8H26v-8c0-.6-.4-1-1-1h-.5l8.5-8.5 8.5 8.5h-.6z"/>
    </g>
  </switch>
</svg>