<svg width="631" height="86" xmlns="http://www.w3.org/2000/svg">
    <g fill="none" fill-rule="evenodd">
        <path fill="none" d="M0 0h631v86H0z"/>
        <path d="M0 48.5h4.364c123.727 0 120.141 46.934 238.481-18.231 76.36-42.05 135.788 120.496 210.893-13.311 4.293-7.647 4.09-13.162.698-14.416-6.883-2.546-8.224 9.118-8.224 20.603V46.77c0 11.69 4.36 21.933 12.276 28.84 6.423 5.603 14.843 8.629 23.691 8.629 1.765 0 3.55-.12 5.337-.367 11.37-1.555 20.916-7.731 26.194-16.943 5.247-9.156 5.76-20.412 1.406-30.881l-8.404-20.072c-2.064-4.961.286-10.654 5.247-12.717 4.96-2.063 10.653.286 12.716 5.247l16.912 40.67L558.5 8.507a9.727 9.727 0 0117.963 0l16.913 40.67 16.912-40.67c2.064-4.961 7.757-7.31 12.717-5.247 4.961 2.063 7.31 7.756 5.247 12.717l-25.895 62.269a9.725 9.725 0 01-17.962 0l-16.914-40.67-16.912 40.67a9.727 9.727 0 01-8.982 5.994c-3.929 0-7.473-2.365-8.816-5.595L523.34 55.96"
              stroke="#F495F9" stroke-width="3" stroke-linecap="round" stroke-linejoin="round"/>
        <path d="M501.368 5.173a9.727 9.727 0 00-10.42-1.913c-4.96 2.062-7.309 7.757-5.247 12.717l11.451 27.54c2.048 4.925 1.934 9.804-.322 13.74-2.287 3.992-6.532 6.6-11.952 7.34-5.25.72-10.08-.576-13.6-3.647-3.672-3.203-5.612-8.106-5.612-14.18V12.239"
              stroke="#F394F8" stroke-width="3" stroke-linecap="round" stroke-linejoin="round"/>
    </g>
</svg>
